<?xml version="1.0" encoding="utf-8"?>
<!-- Generator: Adobe Illustrator 24.1.2, SVG Export Plug-In . SVG Version: 6.00 Build 0)  -->
<svg version="1.1" id="Layer_1" xmlns="http://www.w3.org/2000/svg" xmlns:xlink="http://www.w3.org/1999/xlink" x="0px" y="0px"
	 viewBox="0 0 146.07 30" style="enable-background:new 0 0 146.07 30;" xml:space="preserve">
<style type="text/css">
	.st0{fill-rule:evenodd;clip-rule:evenodd;fill:#FFFFFF;}
	.st1{fill:#72BF44;}
	.st2{fill:#00AE9D;}
	.st3{fill:#BFD730;}
</style>
<g>
	<g>
		<g>
			<path class="st0" d="M88.34,6.96h-0.1c-4.91,0.05-7.94,3.78-7.94,8.44c0,4.49,2.76,8.26,7.78,8.26h0.02h0.14
				c4.88-0.06,7.94-3.36,7.94-8.51C96.18,10.82,93.54,6.96,88.34,6.96 M88.29,20.23l-0.05-0.01c-2.09,0-3.38-2.01-3.36-4.92
				c0-2.81,1.27-4.92,3.36-4.92c2.11,0,3.36,2.11,3.36,4.89C91.6,18.21,90.38,20.23,88.29,20.23 M105.61,6.96h-0.09
				c-4.91,0.05-7.94,3.78-7.94,8.44c0,4.49,2.76,8.26,7.78,8.26h0.02h0.14c4.88-0.06,7.94-3.36,7.94-8.51
				C113.46,10.82,110.82,6.96,105.61,6.96 M105.56,20.23l-0.05-0.01c-2.09,0-3.38-2.01-3.36-4.92c0-2.81,1.27-4.92,3.36-4.92
				c2.11,0,3.36,2.11,3.36,4.89C108.88,18.21,107.65,20.23,105.56,20.23 M124.36,14.66v-0.05c1.9-0.72,2.64-2.04,2.64-3.39
				c0-1.58-0.91-2.73-2.18-3.33c-1.06-0.53-2.22-0.73-3.96-0.78c-0.31-0.01-0.64-0.01-0.99-0.01c-1.99,0-4.13,0.17-5.11,0.36V23.3
				c0.87,0.17,2.3,0.29,4.27,0.29c0.65,0,1.26-0.02,1.82-0.06c2.37-0.16,3.87-0.65,4.84-1.39c1.08-0.82,1.82-2.01,1.82-3.55
				C127.52,16.67,126.32,15.21,124.36,14.66 M119.05,10.32c0.29-0.05,0.7-0.09,1.42-0.09c0.13,0,0.26,0.01,0.39,0.02
				c1.2,0.1,1.8,0.67,1.8,1.52c0,0.84-0.59,1.42-1.8,1.61c-0.28,0.05-0.59,0.07-0.94,0.07h-0.87V10.32z M120.86,20.39
				c-0.18,0.02-0.37,0.03-0.55,0.03c-0.55,0-0.94,0-1.25-0.05v-3.86h1.04c0.27,0,0.52,0.02,0.77,0.04c1.24,0.15,2.11,0.71,2.11,1.86
				C122.97,19.66,122.04,20.25,120.86,20.39 M60.48,7.23v16.16h4.34V9.87C64.82,7.84,63.72,7.23,60.48,7.23 M54.17,13.61
				c-2.04-0.77-2.9-1.08-2.9-1.9c0-0.72,0.72-1.2,2.04-1.2c1.61,0,3.21,0.6,3.5,0.77c0.61-1.66,0.96-4.3-3.45-4.3
				c-4.08,0-6.5,2.21-6.5,5.06c0,2.4,1.82,3.89,4.56,4.87c1.82,0.63,2.54,1.06,2.54,1.85c0,0.82-0.72,1.32-2.21,1.32
				c-1.63,0-3.21-0.51-4.2-1.01l-0.82,3.58c0.91,0.48,2.81,0.98,4.75,0.98c4.73,0,6.89-2.37,6.89-5.15
				C58.37,16.23,57.07,14.69,54.17,13.61 M76.17,20.04c-2.98,0-4.73-1.83-4.73-4.75c0-3.29,2.16-4.75,4.63-4.75
				c1.3,0,2.64,0.38,3,0.58c0.76-1.74,0.58-4.13-3.19-4.13c-4.83,0-9,2.9-9,8.59c0,4.3,2.66,8.06,8.71,8.06
				c1.92,0,3.45-0.36,4.05-0.67l-0.6-3.39C78.38,19.84,77.2,20.04,76.17,20.04"/>
			<path class="st1" d="M19.92,3.09c-0.21,0.02-0.43,0.07-0.63,0.19c-0.48,0.28-0.74,0.78-0.74,1.29c0,0.23,0.05,0.46,0.16,0.67
				l7.33,12.73l2.38-4.11l3.87-6.68l-2.37-4.1H19.92z"/>
			<path class="st2" d="M29.91,3.09l6.23,10.77h4.38h0.35l4.98-8.65C45.95,5.02,46,4.8,46,4.58c0-0.79-0.62-1.44-1.41-1.49H29.91z"
				/>
			<path class="st3" d="M40.52,13.86H28.41l-2.38,4.11l5.02,8.64c0.12,0.17,0.28,0.33,0.48,0.44c0.24,0.14,0.49,0.2,0.74,0.2
				c0.49,0,0.96-0.24,1.25-0.67l7.36-12.73H40.52z"/>
		</g>
	</g>
</g>
</svg>
