<svg version="1.1" id="Layer_1" xmlns="http://www.w3.org/2000/svg" xmlns:xlink="http://www.w3.org/1999/xlink" x="0px" y="0px"
	 width="100%" viewBox="0 0 68 62" enable-background="new 0 0 68 62" xml:space="preserve">
<path fill="#00AE9D" opacity="1.000000" stroke="none" stroke-width="4"
	d="
M43.000011,63.000000
	C29.525055,63.000000 16.549746,62.952785 3.575526,63.050392
	C1.606425,63.065201 0.915716,62.869503 0.930350,60.584335
	C1.052854,41.455383 1.039074,22.325104 0.941870,3.195859
	C0.931723,1.198859 1.543865,0.956155 3.295877,0.961134
	C24.421591,1.021166 45.547924,1.058877 66.672913,0.921169
	C69.152023,0.905008 69.038406,1.875142 69.033333,3.663884
	C68.979568,22.627127 68.950287,41.590881 69.066582,60.553562
	C69.080231,62.778328 68.491768,63.094711 66.454613,63.056896
	C58.805363,62.914906 51.151897,63.000000 43.000011,63.000000
z"/>
<path fill="#E8F8F6" opacity="1.000000" stroke="none" stroke-width="4"
	d="
M49.991364,55.045738
	C36.841747,55.045666 24.189024,54.956066 11.539176,55.107239
	C8.297289,55.145981 6.779815,54.581989 6.868665,50.823608
	C7.116456,40.341904 7.059612,29.848848 6.891142,19.364000
	C6.840917,16.238173 7.985799,15.242497 10.934023,15.371249
	C14.423114,15.523623 17.933218,15.246102 21.417219,15.448092
	C24.412064,15.621722 25.847197,14.619536 25.398785,11.519929
	C24.846962,7.705519 26.576956,6.507240 30.227484,6.899263
	C32.860619,7.182031 35.555752,7.078927 38.210472,6.926186
	C42.622616,6.672330 46.777592,6.447605 45.673985,13.006750
	C45.327892,15.063723 46.892971,15.405655 48.564259,15.397467
	C52.392902,15.378708 56.226170,15.516761 60.049091,15.370213
	C62.977890,15.257938 64.159241,16.201904 64.109314,19.346954
	C63.940228,29.998297 63.974239,40.654770 64.093552,51.307461
	C64.124062,54.031124 63.418476,55.278343 60.474358,55.092319
	C57.158268,54.882793 53.818684,55.045143 49.991364,55.045738
z"/>
<path fill="#02AF9E" opacity="1.000000" stroke="none" stroke-width="4"
	d="
M15.081255,52.411255
	C11.351379,52.867191 9.703197,51.971104 9.962253,48.194763
	C10.291588,43.393944 10.041977,38.553406 10.041977,33.340885
	C15.961682,34.156498 21.604317,35.297760 27.354263,35.248604
	C28.177998,35.241562 29.263935,35.246548 29.445869,36.186897
	C30.701723,42.677891 35.762547,38.926186 39.084743,39.794304
	C39.472214,39.895554 40.247784,39.613186 40.416958,39.287285
	C44.758068,30.924351 53.606194,36.539116 59.581326,33.142235
	C60.813034,32.442005 60.934643,34.121063 60.939056,35.063133
	C60.962486,40.060631 60.922054,45.058479 60.955048,50.055866
	C60.975166,53.104134 58.700069,52.375256 57.053570,52.381119
	C43.226917,52.430370 29.400021,52.410618 15.081255,52.411255
z"/>
<path fill="#06B09F" opacity="1.000000" stroke="none" stroke-width="4"
	d="
M36.993019,32.425228
	C29.687267,32.437401 22.919785,31.998543 16.129951,31.388153
	C10.878452,30.916056 9.831074,28.653191 9.857830,23.830826
	C9.882892,19.313972 11.023595,17.991087 15.623399,18.099512
	C29.235783,18.420378 42.861790,18.312403 56.479656,18.144146
	C59.791241,18.103228 61.159313,18.746044 61.060116,22.441685
	C60.861332,29.847593 61.069992,29.765142 53.842945,31.140156
	C48.425724,32.170834 42.967575,32.329948 36.993019,32.425228
z"/>
<path fill="#23B9AA" opacity="1.000000" stroke="none" stroke-width="4"
	d="
M42.016983,10.390636
	C43.167137,14.268245 42.040974,15.991540 38.118591,15.583790
	C35.840305,15.346951 33.515869,15.465775 31.216427,15.545932
	C28.983206,15.623780 28.468815,14.440441 28.445940,12.476526
	C28.420889,10.325656 29.261747,9.596904 31.400257,9.744894
	C34.834656,9.982562 38.285801,9.978217 42.016983,10.390636
z"/>
<path fill="#60CDC2" opacity="1.000000" stroke="none" stroke-width="4"
	d="
M35.864731,36.994698
	C34.780029,36.847385 33.261337,37.065639 33.553272,36.310566
	C34.242958,34.526745 36.202919,34.900986 37.196564,35.755772
	C38.425770,36.813198 36.817059,36.735229 35.864731,36.994698
z"/>
</svg>
