<svg version="1.1" id="Layer_1" xmlns="http://www.w3.org/2000/svg" xmlns:xlink="http://www.w3.org/1999/xlink" x="0px" y="0px"
	 width="100%" viewBox="0 0 850 754" enable-background="new 0 0 850 754" xml:space="preserve">
<path fill="#00AE9D" opacity="1.000000" stroke="none"
	d="
M477.000000,755.000000
	C319.500000,755.000000 162.499985,754.984436 5.500065,755.093933
	C1.750642,755.096558 0.905087,754.249146 0.906646,750.499939
	C1.009863,502.166656 1.009863,253.833328 0.906646,5.500039
	C0.905087,1.750825 1.750858,0.905395 5.500034,0.906759
	C285.833344,1.008750 566.166687,1.008751 846.499939,0.906759
	C850.249146,0.905395 851.094910,1.750825 851.093384,5.500039
	C850.990112,253.833328 850.990173,502.166656 851.093384,750.499939
	C851.094910,754.249146 850.249512,755.097839 846.499939,755.094360
	C723.500000,754.980164 600.500000,755.000000 477.000000,755.000000
z"/>
<path fill="#F9F9F9" opacity="1.000000" stroke="none"
	d="
M485.399628,567.338684
	C483.380066,569.361877 481.738007,571.278198 479.826843,572.871704
	C474.222260,577.544678 468.182556,580.062378 460.394684,579.875793
	C437.746216,579.333313 415.075378,579.549438 392.415344,579.728943
	C377.984619,579.843140 367.879486,573.388245 361.452942,560.694519
	C359.695679,557.223572 359.168640,553.492188 358.980621,549.686951
	C357.789856,525.588318 358.071472,501.470642 358.240967,477.359283
	C358.269012,473.373871 357.248657,471.894257 353.084076,471.660370
	C340.394958,470.947815 327.672394,470.249756 315.072571,468.670685
	C298.100800,466.543732 281.160553,463.990601 264.331085,460.935486
	C212.719086,451.566132 161.942215,438.666748 111.728462,423.582550
	C98.142868,419.501434 84.520363,415.412323 71.327919,410.094482
	C61.749905,406.233612 60.112213,403.859528 60.107914,393.486603
	C60.093002,357.494690 60.236267,321.501892 60.026237,285.511139
	C59.896725,263.316772 63.787853,242.323196 77.319794,224.136078
	C91.489777,205.091400 110.280540,192.814392 133.606705,188.094604
	C140.707169,186.657898 148.166489,187.153946 155.404633,187.088776
	C196.225540,186.721283 237.051727,186.844406 277.875244,187.015274
	C281.942017,187.032303 282.745575,185.835876 282.740204,182.033234
	C282.718079,166.395935 281.948975,150.735596 283.264465,135.123154
	C284.601929,119.249123 289.472961,105.010536 300.885468,93.058678
	C316.792053,76.400276 336.780579,67.670319 358.134399,60.943741
	C385.302246,52.385700 413.252014,52.110313 441.261230,52.876965
	C459.248962,53.369312 477.120514,55.042149 494.599792,60.027721
	C514.266541,65.637215 532.735901,73.579384 547.664490,87.776939
	C560.116394,99.619034 567.636719,114.307014 568.793945,131.863876
	C569.865845,148.124863 570.435364,164.400177 570.008911,180.682953
	C569.875793,185.764221 571.420898,187.066177 576.502991,187.037323
	C616.492737,186.810333 656.484558,186.986588 696.475281,186.877502
	C714.668152,186.827881 732.009521,189.667587 747.569092,199.886292
	C769.493774,214.285309 784.176575,234.062561 789.258545,259.765167
	C791.813416,272.686554 790.784912,286.219940 791.168396,299.493988
	C792.085388,331.235565 792.774536,362.972809 792.639954,394.727509
	C792.592224,405.986694 790.650513,408.954193 780.298645,412.993744
	C739.398865,428.953827 697.854736,442.922119 655.122498,453.161804
	C628.370361,459.572235 601.383301,464.586761 573.953918,467.213776
	C557.667847,468.773529 541.377625,470.067810 525.049133,471.065643
	C515.459412,471.651672 505.886536,472.478790 496.275360,472.337708
	C493.685333,472.299713 492.872620,473.037079 492.944946,475.679138
	C493.131836,482.505859 493.077515,489.341980 492.993896,496.172821
	C492.757904,515.453308 492.454193,534.732971 492.187622,554.013123
	C492.112732,559.429810 487.920166,562.771790 485.399628,567.338684
z"/>
<path fill="#F9F9F9" opacity="1.000000" stroke="none"
	d="
M791.064331,583.000000
	C790.793518,599.123413 791.168213,614.794678 790.016113,630.352844
	C789.294128,640.101990 784.383362,649.011719 779.417969,657.385742
	C766.166748,679.733582 746.412109,694.016724 721.995972,702.153748
	C720.477600,702.659851 718.726318,702.580566 717.083252,702.582031
	C690.420837,702.606018 663.756775,702.406738 637.096191,702.630676
	C484.152435,703.915405 331.206207,702.961487 178.261520,703.042542
	C160.764435,703.051819 143.093124,703.575195 125.720291,700.215881
	C114.183548,697.984985 104.402168,691.890198 95.486900,684.796326
	C77.742470,670.677002 64.856377,653.104248 61.841908,629.958374
	C59.198036,609.658020 60.128868,589.178101 60.096867,568.763855
	C60.041740,533.601868 60.051220,498.439728 60.120934,463.277863
	C60.129429,458.992004 60.519978,454.689240 61.012032,450.426483
	C61.641899,444.969788 66.305672,440.967316 71.520592,441.094574
	C76.459862,441.215118 80.703064,445.708618 81.081673,451.318604
	C83.045364,480.415558 81.478508,509.547974 81.922760,538.661316
	C82.316322,564.452759 82.419510,590.248474 82.750084,616.041016
	C82.977539,633.788452 86.873505,650.388489 100.497894,662.893372
	C112.230927,673.662292 125.655884,679.866760 142.409973,680.268555
	C189.026901,681.386414 235.637100,680.212708 282.241364,680.890747
	C385.186737,682.388306 488.135864,681.365479 591.082520,681.449341
	C624.209290,681.476318 657.343994,680.933533 690.476685,680.772156
	C700.389221,680.723938 710.375549,680.261169 720.189819,678.951904
	C738.737488,676.477539 751.052002,664.930054 760.283264,649.490845
	C766.494263,639.102905 768.484680,627.625977 768.656982,615.751526
	C769.445190,561.455811 769.331360,507.156128 769.274414,452.856842
	C769.268311,447.080414 774.185425,441.481018 779.614685,441.000275
	C784.799316,440.541229 789.053955,444.884857 790.357483,451.149872
	C791.254028,455.458679 791.029663,459.731018 791.035034,464.016968
	C791.084778,503.511261 791.064331,543.005676 791.064331,583.000000
z"/>
<path fill="#00AE9D" opacity="1.000000" stroke="none"
	d="
M548.660583,447.791016
	C531.632812,448.514618 515.070374,449.110687 498.526733,450.041382
	C493.946381,450.299072 492.834564,448.579651 492.958496,444.351227
	C493.393250,429.515625 487.047943,418.296661 474.313446,410.660126
	C471.081238,408.721863 467.618927,407.971741 463.884003,407.976379
	C439.056519,408.007416 414.218018,408.429779 389.405853,407.811615
	C376.547577,407.491211 369.142029,414.410767 363.074585,424.002533
	C358.879822,430.633881 357.740143,438.214172 358.189758,445.950745
	C358.380676,449.235199 357.362854,450.514252 354.095642,449.961060
	C342.505402,447.998566 330.718750,448.255371 319.078094,446.924530
	C300.261139,444.773224 281.521301,442.054016 262.906738,438.529144
	C228.414124,431.997559 194.277084,423.910858 160.394653,414.763153
	C134.906586,407.881775 109.671623,400.130005 84.489235,392.201996
	C81.319244,391.204041 81.946732,389.209076 81.944931,387.187683
	C81.924255,364.026581 81.775352,340.863770 82.005356,317.704865
	C82.183495,299.767517 82.374107,281.806274 83.457550,263.910065
	C84.231819,251.120789 89.028076,239.664734 98.143463,230.087631
	C104.028885,223.904114 110.443115,218.777618 117.993797,214.794601
	C122.867714,212.223572 128.108124,211.877243 133.247192,211.052078
	C138.277222,210.244415 143.451874,210.143478 148.566940,210.087524
	C313.149261,208.287109 477.737152,209.793045 642.321838,209.287170
	C660.150574,209.232376 677.998962,208.793900 695.802307,209.473129
	C709.041504,209.978241 722.680969,208.893661 734.977844,216.060013
	C755.533508,228.039383 766.788818,245.409607 768.010864,269.455292
	C769.548462,299.712830 768.860657,329.984222 769.459717,360.241302
	C769.653564,370.030212 769.735107,379.839874 770.134216,389.629852
	C770.254150,392.572815 769.291992,394.124176 766.535461,395.115204
	C728.165588,408.909485 689.702759,422.400330 650.039673,432.124054
	C623.943604,438.521667 597.541565,443.063904 570.768188,445.442261
	C563.543945,446.084015 556.344055,446.999817 548.660583,447.791016
z"/>
<path fill="#00AE9D" opacity="1.000000" stroke="none"
	d="
M519.270935,91.663437
	C534.705444,100.700272 544.669312,113.146385 546.732605,131.024445
	C547.358093,136.444427 547.316162,141.925079 547.608276,147.361542
	C548.231812,158.966827 547.358398,170.639084 548.452393,182.248566
	C548.787354,185.804001 547.921448,187.049927 543.961426,187.036453
	C496.328705,186.874344 448.695282,186.925507 401.062012,186.924866
	C370.416840,186.924438 339.771393,186.865662 309.126923,187.016418
	C305.351959,187.034988 304.005707,186.288956 304.107635,182.184296
	C304.409424,170.033829 304.018341,157.867096 304.262054,145.714020
	C304.596039,129.061096 307.995514,113.482552 321.432587,101.916336
	C330.297302,94.285828 340.364655,88.765495 351.396851,84.956863
	C369.588959,78.676407 388.213013,74.944504 407.551056,75.123741
	C421.136932,75.249664 434.736084,74.796234 448.309418,75.227554
	C470.674957,75.938255 492.735046,78.588753 513.290771,88.399590
	C515.225647,89.323097 517.058533,90.460472 519.270935,91.663437
z"/>
<path fill="#00AE9D" opacity="1.000000" stroke="none"
	d="
M470.614319,482.000305
	C470.616486,496.661224 470.704773,510.822906 470.584961,524.982849
	C470.510468,533.785522 470.106628,542.585205 469.879517,551.386963
	C469.780701,555.215942 468.583557,556.947693 464.048462,557.221924
	C441.109222,558.609192 418.165466,557.639709 395.228729,557.907959
	C380.781158,558.076965 380.779846,557.937439 380.780029,543.703979
	C380.780396,511.215942 380.775604,478.727905 380.787292,446.239868
	C380.788605,442.591461 381.128387,438.939941 381.237518,435.317017
	C381.353973,431.449219 383.035461,430.569489 386.279388,430.401978
	C409.571991,429.199310 432.881958,429.768524 456.178192,429.933105
	C470.292664,430.032745 470.369141,430.521637 470.588898,447.514618
	C470.735382,458.841370 470.613983,470.171600 470.614319,482.000305
z"/>
</svg>
