<svg id="svg" version="1.1" xmlns="http://www.w3.org/2000/svg" xmlns:xlink="http://www.w3.org/1999/xlink" width="400" height="440" viewBox="0, 0, 400,440"><g id="svgg"><path id="path0" d="M193.089 17.763 C 191.362 18.134,190.401 18.627,189.289 19.711 C 188.359 20.617,186.237 21.839,183.636 22.967 C 181.346 23.960,179.006 25.208,178.436 25.741 C 177.104 26.985,175.387 27.843,172.287 28.811 C 169.781 29.594,168.793 30.131,166.340 32.045 C 165.603 32.620,163.740 33.564,162.200 34.143 C 160.609 34.740,158.452 35.972,157.204 36.996 C 155.741 38.196,154.004 39.135,152.004 39.806 C 149.097 40.781,147.814 41.441,144.546 43.642 C 143.696 44.214,141.560 45.178,139.800 45.783 C 137.928 46.426,135.621 47.608,134.242 48.629 C 132.945 49.589,130.663 50.854,129.173 51.439 C 127.682 52.024,125.649 53.174,124.656 53.995 C 122.977 55.381,121.550 56.063,116.726 57.780 C 115.695 58.146,114.165 59.000,113.326 59.677 C 111.793 60.914,109.388 62.114,105.948 63.359 C 104.929 63.728,103.259 64.820,102.237 65.786 C 100.812 67.132,99.610 67.795,97.089 68.627 C 95.049 69.300,92.930 70.360,91.508 71.420 C 90.009 72.537,87.927 73.558,85.496 74.368 C 82.934 75.221,81.185 76.096,79.875 77.178 C 78.786 78.078,76.570 79.280,74.687 79.990 C 72.600 80.778,70.757 81.808,69.639 82.810 C 68.670 83.678,66.870 84.755,65.639 85.202 C 64.407 85.650,62.679 86.280,61.798 86.604 C 60.917 86.927,59.321 87.914,58.252 88.798 C 57.086 89.761,55.405 90.667,54.054 91.060 C 50.685 92.039,48.750 92.982,47.264 94.372 C 45.808 95.733,43.859 96.814,41.461 97.590 C 40.615 97.864,38.725 98.909,37.261 99.914 C 35.798 100.919,33.392 102.151,31.915 102.652 C 28.618 103.772,27.228 104.478,25.045 106.145 C 24.113 106.856,22.193 107.860,20.778 108.376 C 17.914 109.420,13.387 113.354,12.220 115.813 C 11.321 117.708,11.454 264.532,12.358 266.800 C 12.664 267.570,13.514 269.190,14.247 270.400 C 15.000 271.644,16.009 274.252,16.567 276.400 C 17.982 281.844,18.613 283.438,20.215 285.620 C 21.246 287.025,21.905 288.620,22.623 291.452 C 23.563 295.155,24.196 296.503,26.738 300.200 C 27.343 301.080,28.269 302.790,28.796 304.000 C 29.324 305.210,30.421 307.100,31.234 308.200 C 32.047 309.300,33.343 311.462,34.113 313.004 C 34.883 314.546,36.252 316.703,37.156 317.796 C 38.059 318.889,39.355 320.903,40.036 322.272 C 40.732 323.671,41.877 325.221,42.651 325.812 C 43.409 326.390,44.595 327.866,45.287 329.093 C 46.794 331.762,68.225 353.395,70.939 354.985 C 71.887 355.541,73.237 356.710,73.939 357.584 C 74.641 358.457,76.067 359.746,77.108 360.447 C 78.148 361.148,79.426 362.245,79.947 362.884 C 80.468 363.523,81.885 364.605,83.095 365.288 C 84.305 365.971,85.949 367.203,86.748 368.024 C 87.546 368.846,89.640 370.374,91.400 371.419 C 93.160 372.464,95.320 373.994,96.200 374.819 C 97.080 375.644,98.700 376.771,99.800 377.323 C 100.900 377.876,102.430 378.987,103.200 379.792 C 103.970 380.598,105.972 381.972,107.649 382.846 C 109.326 383.721,111.425 385.058,112.314 385.819 C 113.202 386.579,115.160 387.751,116.665 388.423 C 118.169 389.095,120.210 390.419,121.200 391.364 C 122.423 392.532,124.048 393.497,126.268 394.374 C 128.293 395.173,130.180 396.258,131.226 397.224 C 132.321 398.235,134.068 399.218,136.197 400.022 C 138.192 400.775,140.310 401.942,141.597 402.998 C 142.762 403.953,144.757 405.115,146.031 405.579 C 147.305 406.044,149.214 407.046,150.273 407.807 C 152.987 409.756,154.871 410.721,157.724 411.626 C 159.086 412.058,160.920 412.942,161.800 413.592 C 164.330 415.459,166.851 416.688,169.629 417.407 C 173.129 418.314,174.663 418.997,176.167 420.318 C 177.602 421.577,178.561 422.001,182.664 423.185 C 184.262 423.647,186.623 424.744,188.008 425.669 C 193.488 429.328,200.985 429.310,206.320 425.624 C 207.807 424.597,209.998 423.625,212.619 422.832 C 215.432 421.981,217.112 421.216,218.219 420.284 C 219.968 418.810,220.656 418.508,225.600 417.042 C 227.894 416.361,229.832 415.447,231.560 414.230 C 233.013 413.205,235.469 411.977,237.241 411.386 C 239.219 410.728,241.328 409.635,242.996 408.403 C 244.444 407.334,246.869 405.973,248.384 405.379 C 249.899 404.784,251.963 403.616,252.971 402.783 C 253.980 401.950,256.264 400.711,258.049 400.029 C 260.159 399.224,261.955 398.198,263.188 397.095 C 264.432 395.982,266.140 395.011,268.164 394.267 C 270.377 393.452,271.899 392.551,273.570 391.067 C 274.883 389.899,276.744 388.702,277.847 388.314 C 278.921 387.936,280.698 386.882,281.796 385.971 C 282.894 385.059,285.011 383.699,286.502 382.949 C 287.992 382.198,290.001 380.806,290.965 379.855 C 291.930 378.904,293.537 377.742,294.536 377.272 C 295.535 376.802,297.272 375.602,298.394 374.605 C 299.517 373.608,301.711 372.150,303.269 371.365 C 304.917 370.535,306.774 369.200,307.707 368.176 C 308.589 367.207,310.244 365.887,311.386 365.243 C 312.527 364.599,313.771 363.599,314.149 363.021 C 314.528 362.443,316.079 361.175,317.595 360.203 C 319.112 359.231,320.553 358.062,320.797 357.605 C 321.042 357.149,321.965 356.251,322.848 355.611 C 324.351 354.522,330.966 348.322,333.200 345.908 C 333.750 345.314,335.307 343.724,336.660 342.374 C 338.013 341.024,339.273 339.757,339.460 339.557 C 339.647 339.358,340.700 338.337,341.800 337.288 C 344.630 334.591,347.618 331.048,348.874 328.902 C 349.464 327.892,350.655 326.419,351.520 325.629 C 352.384 324.838,353.674 323.039,354.384 321.631 C 355.095 320.223,356.540 317.944,357.596 316.567 C 358.651 315.190,359.805 313.194,360.160 312.132 C 360.546 310.978,361.570 309.383,362.703 308.172 C 364.227 306.543,364.819 305.468,365.714 302.706 C 366.327 300.814,367.541 298.217,368.413 296.934 C 369.889 294.761,370.958 292.132,371.977 288.161 C 372.209 287.259,373.186 285.322,374.148 283.857 C 375.111 282.392,376.094 280.429,376.335 279.496 C 376.575 278.563,377.149 276.270,377.612 274.400 C 378.075 272.530,378.905 269.920,379.457 268.600 C 381.991 262.542,381.800 268.982,381.800 189.537 L 381.800 117.274 380.490 115.737 C 379.769 114.892,378.640 113.363,377.980 112.339 C 376.522 110.080,375.775 109.567,372.055 108.273 C 370.459 107.718,368.201 106.526,367.024 105.618 C 365.691 104.590,363.706 103.585,361.744 102.945 C 357.824 101.666,357.379 101.433,355.380 99.609 C 354.469 98.777,352.528 97.660,350.942 97.054 C 349.392 96.462,346.990 95.178,345.603 94.202 C 344.215 93.225,341.712 91.969,340.040 91.411 C 338.368 90.853,336.534 90.082,335.965 89.698 C 335.396 89.314,334.046 88.409,332.965 87.686 C 331.884 86.963,329.991 86.003,328.757 85.553 C 327.524 85.103,325.564 83.955,324.403 83.002 C 322.958 81.817,321.269 80.932,319.054 80.200 C 315.169 78.916,314.637 78.648,312.691 76.992 C 311.860 76.285,309.663 75.120,307.807 74.403 C 305.698 73.587,303.681 72.456,302.426 71.385 C 301.031 70.194,299.447 69.348,297.230 68.610 C 295.476 68.026,293.447 67.113,292.721 66.580 C 289.836 64.467,288.879 63.962,285.819 62.941 C 283.427 62.144,282.168 61.440,280.743 60.108 C 279.338 58.794,277.898 57.982,275.182 56.972 C 273.166 56.223,270.903 55.071,270.153 54.412 C 268.433 52.902,267.328 52.356,263.646 51.196 C 261.447 50.503,260.134 49.776,258.506 48.352 C 257.053 47.080,255.481 46.160,253.820 45.607 C 252.445 45.149,250.183 43.974,248.792 42.995 C 247.402 42.015,245.486 40.937,244.536 40.598 C 243.585 40.259,242.013 39.698,241.043 39.352 C 240.073 39.005,238.234 37.940,236.956 36.984 C 235.679 36.028,233.636 34.879,232.417 34.429 C 230.130 33.586,229.276 33.087,226.463 30.950 C 225.558 30.262,223.302 29.217,221.450 28.627 C 219.131 27.889,217.374 27.005,215.811 25.791 C 214.562 24.821,212.188 23.527,210.536 22.914 C 208.640 22.210,206.735 21.125,205.366 19.969 C 202.284 17.366,198.285 16.647,193.089 17.763 M201.385 41.106 C 202.273 41.453,203.587 42.243,204.305 42.861 C 205.980 44.303,207.125 44.861,210.754 46.004 C 212.953 46.697,214.266 47.424,215.894 48.848 C 217.373 50.142,218.916 51.040,220.662 51.621 C 222.081 52.093,224.029 53.080,224.990 53.813 C 227.239 55.530,228.604 56.224,231.963 57.361 C 233.466 57.869,235.844 59.088,237.248 60.069 C 238.652 61.050,241.030 62.363,242.533 62.985 C 244.036 63.608,246.016 64.746,246.933 65.514 C 248.767 67.050,250.629 67.945,254.062 68.943 C 255.345 69.316,257.066 70.219,258.035 71.029 C 260.007 72.677,261.769 73.619,264.626 74.553 C 265.765 74.925,267.639 76.049,268.902 77.117 C 270.596 78.549,271.993 79.293,274.554 80.127 C 276.856 80.877,278.571 81.744,279.861 82.810 C 281.145 83.871,282.927 84.773,285.327 85.579 C 288.083 86.503,289.310 87.168,290.755 88.519 C 291.782 89.480,293.517 90.591,294.611 90.989 C 297.687 92.106,300.418 93.488,302.505 94.982 C 303.552 95.732,305.440 96.646,306.700 97.012 C 309.696 97.883,311.031 98.594,313.129 100.435 C 314.080 101.270,316.075 102.417,317.562 102.986 C 319.049 103.554,321.448 104.795,322.894 105.745 C 324.339 106.694,326.034 107.660,326.661 107.892 C 327.287 108.124,328.678 108.627,329.752 109.010 C 330.826 109.393,332.882 110.513,334.322 111.498 C 335.762 112.484,338.156 113.786,339.642 114.390 C 341.129 114.995,343.092 116.130,344.006 116.912 C 345.556 118.239,346.883 118.873,351.709 120.593 C 354.134 121.457,358.152 124.464,359.656 126.541 L 360.816 128.142 360.701 194.171 C 360.571 269.535,360.814 264.470,357.025 270.762 C 355.736 272.901,355.416 273.764,353.776 279.528 C 353.380 280.919,352.293 283.218,351.361 284.638 C 350.428 286.058,349.174 288.762,348.574 290.646 C 347.771 293.168,347.031 294.601,345.771 296.077 C 344.830 297.180,343.655 299.099,343.161 300.341 C 342.200 302.759,341.217 304.398,339.765 306.000 C 339.267 306.550,338.196 308.260,337.385 309.800 C 336.574 311.340,335.051 313.513,334.000 314.629 C 332.948 315.745,331.710 317.399,331.249 318.305 C 330.251 320.260,314.556 336.202,312.130 337.724 C 311.212 338.301,309.862 339.517,309.130 340.428 C 308.399 341.338,307.080 342.505,306.200 343.021 C 305.320 343.538,303.880 344.704,303.000 345.614 C 302.120 346.524,300.693 347.632,299.829 348.078 C 298.965 348.524,297.345 349.738,296.229 350.777 C 295.113 351.815,293.030 353.356,291.600 354.201 C 290.170 355.045,288.147 356.521,287.104 357.481 C 286.061 358.440,284.388 359.576,283.387 360.005 C 282.386 360.435,280.630 361.656,279.484 362.720 C 278.338 363.785,276.374 365.147,275.119 365.747 C 273.865 366.348,272.006 367.528,270.989 368.369 C 269.044 369.976,268.755 370.142,265.152 371.722 C 263.916 372.264,262.182 373.360,261.299 374.158 C 260.417 374.955,258.136 376.338,256.230 377.231 C 254.325 378.124,252.185 379.365,251.474 379.988 C 250.764 380.612,248.579 381.863,246.618 382.769 C 244.657 383.675,242.141 385.117,241.026 385.974 C 239.859 386.872,237.813 387.909,236.200 388.421 C 232.641 389.551,231.383 390.191,229.411 391.874 C 228.535 392.621,226.829 393.518,225.611 393.872 C 222.164 394.874,220.060 395.887,218.306 397.388 C 217.242 398.298,215.417 399.195,212.965 400.012 C 210.917 400.694,208.646 401.684,207.920 402.211 C 201.364 406.970,193.290 407.136,187.055 402.639 C 185.985 401.867,183.423 400.674,181.361 399.987 C 178.776 399.126,177.024 398.252,175.718 397.173 C 174.417 396.098,172.661 395.220,170.118 394.373 C 167.595 393.532,165.816 392.646,164.545 391.595 C 163.517 390.746,161.580 389.664,160.239 389.191 C 158.897 388.717,157.079 388.077,156.198 387.769 C 155.317 387.461,153.746 386.507,152.708 385.648 C 151.639 384.765,149.511 383.611,147.802 382.988 C 145.965 382.318,144.098 381.283,143.030 380.342 C 142.064 379.493,139.760 378.101,137.908 377.250 C 136.056 376.398,133.645 374.906,132.550 373.933 C 131.401 372.912,129.554 371.797,128.180 371.294 C 126.871 370.815,124.922 369.695,123.849 368.805 C 122.775 367.915,120.477 366.448,118.741 365.545 C 117.006 364.642,115.238 363.415,114.813 362.818 C 114.388 362.221,112.914 361.133,111.539 360.400 C 110.163 359.666,108.309 358.399,107.418 357.583 C 106.528 356.768,104.540 355.340,103.000 354.411 C 101.460 353.481,99.480 352.041,98.600 351.211 C 97.720 350.381,95.990 349.067,94.757 348.292 C 93.523 347.517,92.125 346.338,91.652 345.672 C 91.178 345.007,89.919 343.927,88.855 343.272 C 87.791 342.617,86.231 341.240,85.389 340.212 C 84.546 339.184,83.149 337.982,82.283 337.540 C 80.732 336.749,76.854 333.307,74.039 330.224 C 73.248 329.357,71.972 328.097,71.205 327.424 C 70.438 326.751,69.178 325.495,68.405 324.633 C 67.632 323.772,66.170 322.242,65.156 321.233 C 64.142 320.225,62.942 318.680,62.489 317.800 C 62.037 316.920,60.824 315.390,59.796 314.400 C 58.767 313.410,57.518 311.700,57.021 310.600 C 56.523 309.500,55.367 307.700,54.451 306.600 C 53.536 305.500,52.040 303.160,51.128 301.400 C 50.217 299.640,48.913 297.543,48.231 296.739 C 47.504 295.884,46.537 293.895,45.897 291.939 C 44.811 288.622,44.533 288.084,42.168 284.742 C 41.490 283.784,40.624 281.830,40.244 280.400 C 39.251 276.664,38.660 275.261,37.112 272.963 C 36.357 271.843,35.538 270.133,35.291 269.163 C 35.045 268.194,34.114 264.483,33.222 260.917 L 31.600 254.434 31.600 191.259 L 31.600 128.083 34.849 125.026 C 38.471 121.619,39.089 121.234,42.918 119.997 C 44.392 119.521,47.061 118.157,48.851 116.966 C 50.641 115.775,52.255 114.800,52.438 114.800 C 53.536 114.800,57.446 112.930,58.894 111.712 C 60.569 110.304,62.787 109.167,66.440 107.845 C 67.452 107.479,69.031 106.537,69.949 105.750 C 71.024 104.830,73.006 103.826,75.510 102.931 C 77.853 102.094,80.195 100.928,81.400 100.000 C 82.500 99.152,84.847 97.892,86.615 97.200 C 88.547 96.444,90.527 95.317,91.577 94.376 C 92.537 93.516,94.330 92.445,95.561 91.998 C 96.793 91.550,98.562 90.904,99.493 90.562 C 100.425 90.219,101.998 89.269,102.989 88.450 C 104.101 87.531,105.905 86.604,107.696 86.031 C 111.395 84.848,112.485 84.282,114.402 82.551 C 115.268 81.768,117.321 80.621,119.043 79.958 C 120.742 79.304,123.176 77.984,124.452 77.024 C 126.007 75.856,127.907 74.919,130.208 74.186 C 132.562 73.436,134.234 72.604,135.520 71.542 C 136.551 70.689,138.207 69.698,139.198 69.340 C 142.842 68.023,145.072 66.888,146.533 65.605 C 147.356 64.883,149.740 63.606,151.831 62.768 C 153.922 61.930,156.189 60.775,156.870 60.203 C 158.474 58.853,160.359 57.921,163.721 56.815 C 165.218 56.323,167.198 55.345,168.121 54.641 C 170.103 53.130,171.303 52.443,174.800 50.819 C 176.230 50.155,178.155 48.997,179.078 48.246 C 180.128 47.392,182.169 46.410,184.524 45.625 C 187.072 44.776,188.833 43.906,189.967 42.935 C 193.176 40.189,197.335 39.522,201.385 41.106 M155.400 108.227 C 149.648 110.279,149.747 110.181,148.948 114.600 C 148.267 118.367,148.282 121.525,149.000 125.600 C 149.329 127.470,149.599 130.367,149.599 132.037 C 149.600 134.032,149.875 135.873,150.400 137.400 C 150.880 138.796,151.202 140.780,151.205 142.363 C 151.208 143.900,151.553 146.085,152.033 147.600 C 152.485 149.030,153.012 152.180,153.205 154.600 C 153.398 157.020,153.653 159.540,153.773 160.200 C 153.893 160.860,154.176 164.730,154.404 168.800 C 154.852 176.820,155.702 184.614,156.598 188.917 C 156.909 190.412,157.284 192.752,157.430 194.117 C 157.576 195.483,157.954 197.590,158.272 198.800 C 158.844 200.986,159.298 205.687,160.009 216.800 C 160.877 230.363,161.118 232.614,161.956 234.963 C 162.490 236.458,162.800 238.294,162.800 239.963 C 162.800 241.700,163.092 243.351,163.654 244.800 C 164.256 246.354,164.610 248.527,164.859 252.200 C 166.957 283.125,166.637 281.369,171.058 286.200 C 172.786 288.089,174.560 289.716,175.000 289.815 C 175.440 289.914,178.205 290.267,181.144 290.598 C 186.644 291.219,189.205 292.014,190.536 293.513 C 191.425 294.515,190.829 294.909,186.200 296.379 C 179.506 298.504,172.439 305.401,170.400 311.800 C 170.120 312.680,169.389 314.403,168.776 315.628 C 166.355 320.467,166.305 325.284,168.630 329.731 C 169.213 330.845,170.274 333.597,170.988 335.847 L 172.286 339.937 176.174 343.826 L 180.063 347.714 184.153 349.012 C 186.403 349.726,189.171 350.795,190.305 351.388 C 193.642 353.133,196.987 353.527,199.849 352.511 C 201.142 352.052,204.059 351.026,206.331 350.230 C 217.422 346.344,223.137 339.208,225.256 326.600 C 225.709 323.906,225.429 318.237,224.759 316.525 C 224.516 315.906,223.965 314.140,223.534 312.600 C 221.726 306.145,211.899 296.400,207.199 296.400 C 206.995 296.400,205.967 296.100,204.914 295.734 C 203.861 295.368,201.740 294.867,200.200 294.621 L 197.400 294.174 200.000 293.656 C 201.430 293.372,203.514 292.697,204.632 292.156 C 206.086 291.452,208.019 291.020,211.432 290.634 C 220.671 289.591,223.992 286.844,226.095 278.508 C 227.263 273.881,227.440 272.288,228.376 258.000 C 228.599 254.590,228.962 251.080,229.181 250.200 C 229.401 249.320,229.585 247.171,229.590 245.424 C 229.596 243.677,229.951 240.347,230.381 238.024 C 233.026 223.715,233.402 220.983,233.986 211.800 C 234.743 199.905,235.655 191.089,236.439 188.096 C 236.858 186.498,237.200 184.062,237.200 182.682 C 237.200 181.128,237.526 179.264,238.056 177.786 C 238.652 176.125,239.011 173.820,239.239 170.200 C 239.570 164.947,240.042 158.280,240.785 148.400 C 241.008 145.430,241.458 141.560,241.784 139.800 C 242.111 138.040,242.577 135.340,242.821 133.800 C 243.065 132.260,243.610 129.155,244.032 126.901 C 245.888 116.994,244.644 112.119,239.422 108.842 L 237.443 107.600 197.222 107.628 C 163.452 107.652,156.743 107.748,155.400 108.227 M221.103 127.700 C 222.881 129.599,222.596 138.460,220.398 149.609 C 219.959 151.836,219.594 154.231,219.586 154.929 C 219.578 155.628,219.298 157.280,218.965 158.600 C 218.379 160.917,218.003 164.896,217.207 177.200 C 217.001 180.390,216.649 183.720,216.425 184.600 C 216.202 185.480,216.010 187.730,216.000 189.600 C 215.990 191.470,215.798 193.720,215.574 194.600 C 215.350 195.480,214.912 197.910,214.601 200.000 C 214.290 202.090,213.685 205.870,213.257 208.400 C 212.829 210.930,212.280 215.250,212.036 218.000 C 211.634 222.532,211.408 225.664,210.417 240.400 C 210.195 243.699,209.866 245.547,209.254 246.933 C 208.641 248.320,208.400 249.677,208.400 251.733 C 208.400 253.631,208.129 255.311,207.600 256.704 C 207.020 258.231,206.800 259.777,206.800 262.335 C 206.800 267.840,205.884 268.400,196.886 268.400 C 187.593 268.400,186.793 267.549,185.226 256.000 C 185.002 254.350,184.635 252.371,184.410 251.603 C 184.184 250.834,183.996 248.674,183.990 246.803 C 183.985 244.931,183.802 242.680,183.583 241.800 C 183.365 240.920,183.013 237.590,182.801 234.400 C 181.910 220.977,181.598 217.686,181.020 215.600 C 180.684 214.390,180.407 212.758,180.405 211.973 C 180.402 211.188,180.034 209.208,179.586 207.573 C 178.757 204.543,177.861 195.803,176.616 178.600 C 176.188 172.680,175.609 167.831,174.993 165.000 C 172.563 153.839,172.184 150.497,171.759 136.413 L 171.524 128.626 172.662 127.715 L 173.800 126.804 197.030 126.802 L 220.261 126.800 221.103 127.700 M199.400 315.150 C 207.051 318.654,207.326 328.081,199.850 330.597 C 196.134 331.848,191.185 330.868,190.048 328.656 C 186.097 320.971,192.360 311.927,199.400 315.150 " stroke="none" fill="#fcac2e" fill-rule="evenodd"></path><path id="path1" d="M0.000 220.000 L 0.000 440.000 200.000 440.000 L 400.000 440.000 400.000 220.000 L 400.000 0.000 200.000 0.000 L 0.000 0.000 0.000 220.000 M211.303 15.294 C 212.831 15.973,213.600 17.208,213.600 18.987 C 213.600 19.839,213.820 19.944,216.100 20.179 C 222.096 20.796,224.105 21.732,224.630 24.150 C 224.983 25.780,225.363 25.987,228.027 25.994 C 232.683 26.007,235.679 27.565,236.180 30.235 C 236.423 31.531,236.521 31.600,238.118 31.602 C 240.151 31.605,242.800 32.293,242.800 32.819 C 242.800 33.028,243.088 33.200,243.440 33.200 C 244.241 33.200,246.800 35.717,246.800 36.505 C 246.800 36.943,247.566 37.159,249.842 37.365 C 253.504 37.697,256.850 39.357,257.869 41.346 C 258.705 42.978,259.067 43.187,261.081 43.194 C 262.006 43.197,263.225 43.411,263.791 43.669 C 264.811 44.133,264.929 44.401,265.395 47.300 L 265.636 48.800 269.318 48.802 C 275.512 48.806,276.800 49.533,276.800 53.026 L 276.800 54.400 279.100 54.408 C 285.647 54.431,287.569 55.250,287.897 58.159 C 288.084 59.822,288.205 60.001,289.152 60.011 C 296.621 60.088,298.900 60.969,299.479 64.000 L 299.824 65.800 303.978 66.098 C 309.365 66.484,310.800 67.436,310.800 70.626 C 310.800 71.532,310.946 71.601,312.900 71.614 C 314.826 71.627,318.439 72.319,320.069 72.988 C 320.791 73.284,322.000 75.520,322.000 76.560 C 322.000 77.045,322.412 77.202,323.700 77.207 C 328.873 77.228,332.457 78.756,333.256 81.280 L 333.800 83.000 336.400 83.245 C 339.737 83.559,342.521 85.085,343.594 87.188 C 344.361 88.692,344.362 88.692,347.366 88.885 C 349.019 88.991,350.650 89.309,350.990 89.592 C 351.331 89.875,352.192 90.397,352.905 90.753 C 353.617 91.109,354.552 92.058,354.983 92.862 C 355.722 94.243,355.905 94.339,358.244 94.590 C 361.466 94.935,362.099 95.434,362.376 97.850 L 362.600 99.800 367.486 100.200 C 373.102 100.660,373.508 100.889,373.928 103.839 L 374.208 105.800 378.004 106.072 C 382.860 106.419,383.865 106.812,384.719 108.697 C 385.353 110.097,385.400 115.849,385.400 192.218 C 385.400 285.322,385.770 276.138,382.000 276.638 L 380.000 276.903 379.997 279.752 C 379.987 288.316,378.821 292.241,376.000 293.207 L 374.200 293.823 373.965 298.216 C 373.653 304.055,372.934 305.200,369.574 305.200 C 368.415 305.200,368.400 305.229,368.400 307.438 C 368.400 312.149,366.936 315.287,364.381 316.053 C 362.929 316.488,362.885 316.558,362.625 318.858 C 362.202 322.599,359.642 326.800,357.785 326.800 C 357.255 326.800,356.400 328.800,356.400 330.041 C 356.400 332.048,354.942 333.378,352.410 333.681 C 351.540 333.786,351.371 334.082,351.010 336.136 C 350.526 338.891,349.775 339.600,347.337 339.600 L 345.628 339.600 345.354 341.659 C 345.011 344.250,344.250 345.011,341.659 345.354 L 339.600 345.628 339.600 347.325 C 339.600 349.824,338.811 350.691,336.244 351.012 L 334.094 351.280 333.903 353.270 C 333.662 355.779,332.972 356.462,330.437 356.706 L 328.414 356.900 328.158 358.833 C 327.840 361.227,326.933 362.102,324.475 362.384 C 322.683 362.590,322.581 362.671,322.172 364.200 C 321.356 367.246,320.995 367.533,317.172 368.171 C 316.037 368.360,315.605 368.700,315.069 369.825 C 314.697 370.604,313.842 371.547,313.167 371.921 C 312.493 372.294,311.567 372.915,311.109 373.300 C 310.526 373.791,309.584 374.000,307.957 374.000 L 305.636 374.000 305.395 375.500 C 304.915 378.488,304.763 378.834,303.763 379.214 C 303.205 379.426,302.234 379.600,301.607 379.600 C 299.799 379.600,299.239 379.983,298.973 381.405 C 298.513 383.854,294.900 385.600,290.288 385.600 L 288.492 385.600 288.221 387.772 C 287.882 390.482,287.448 390.840,284.183 391.102 C 281.631 391.307,281.538 391.354,280.795 392.809 C 279.738 394.881,276.320 396.800,273.686 396.800 C 271.473 396.800,270.800 397.291,270.800 398.906 C 270.800 401.587,269.481 402.273,263.579 402.659 L 259.691 402.914 259.502 404.881 C 259.215 407.869,258.129 408.373,251.951 408.390 L 248.502 408.400 248.302 410.475 C 248.044 413.166,247.090 413.998,244.256 414.006 C 241.851 414.013,241.526 414.181,240.669 415.854 C 239.881 417.394,236.140 419.598,234.306 419.604 C 231.135 419.615,229.961 420.055,229.276 421.491 C 228.110 423.937,224.817 425.210,218.944 425.488 L 214.087 425.717 213.830 427.659 C 213.378 431.069,213.728 431.000,196.928 431.000 C 180.354 431.000,180.918 431.120,180.510 427.501 L 180.309 425.712 175.380 425.500 C 168.878 425.219,165.434 423.603,164.302 420.304 C 164.246 420.141,163.030 419.902,161.600 419.773 C 157.600 419.412,153.200 416.908,153.200 414.993 C 153.200 414.368,151.919 414.013,149.640 414.005 C 146.656 413.996,141.600 410.865,141.600 409.027 C 141.600 408.687,140.696 408.433,138.900 408.268 C 136.003 408.002,134.806 407.181,134.795 405.456 C 134.779 403.021,134.634 402.930,130.270 402.630 C 125.152 402.277,124.353 401.910,123.667 399.597 C 123.373 398.609,123.064 397.575,122.979 397.300 C 122.882 396.985,122.042 396.794,120.713 396.784 C 118.002 396.764,114.543 394.844,113.503 392.782 C 112.841 391.469,112.673 391.386,110.145 391.127 C 106.951 390.800,106.349 390.287,106.098 387.680 L 105.908 385.701 103.254 385.496 C 98.522 385.131,96.306 384.119,95.600 382.000 C 94.868 379.805,94.628 379.614,92.589 379.606 C 90.160 379.597,89.306 378.790,88.982 376.197 L 88.708 374.000 86.408 374.000 C 84.829 374.000,83.809 373.777,83.154 373.289 C 82.629 372.899,81.705 372.328,81.101 372.022 C 80.496 371.716,79.686 370.793,79.301 369.971 C 78.667 368.619,78.386 368.433,76.367 368.031 C 73.428 367.445,72.811 366.933,72.213 364.574 L 71.713 362.600 69.644 362.268 C 67.298 361.890,66.633 361.170,66.211 358.548 L 65.946 356.897 63.898 356.700 C 61.352 356.455,60.400 355.451,60.400 353.011 L 60.400 351.311 58.345 351.068 C 55.756 350.761,54.953 350.034,54.697 347.764 C 54.447 345.548,54.452 345.553,52.236 345.303 C 49.966 345.047,49.239 344.244,48.932 341.655 L 48.689 339.600 46.989 339.600 C 44.547 339.600,43.596 338.680,43.267 336.001 L 43.000 333.822 41.200 333.519 C 38.943 333.140,38.241 332.294,37.637 329.226 C 37.299 327.507,36.979 326.800,36.540 326.800 C 35.725 326.800,33.200 324.260,33.200 323.440 C 33.200 323.088,33.038 322.800,32.839 322.800 C 32.284 322.800,31.600 320.474,31.600 318.586 C 31.600 316.891,31.599 316.891,29.854 316.629 C 26.657 316.150,26.027 314.885,26.010 308.918 L 26.000 305.636 24.500 305.395 C 20.521 304.755,20.603 304.887,20.187 298.472 L 19.897 293.993 18.325 293.742 C 15.294 293.257,14.430 291.238,14.408 284.583 L 14.400 282.166 12.613 281.688 C 8.524 280.594,8.756 286.214,8.886 191.182 C 9.015 97.642,8.653 106.676,12.292 106.204 C 15.490 105.789,15.779 105.656,16.400 104.320 C 17.159 102.686,20.838 100.439,22.800 100.411 C 26.107 100.364,27.181 99.961,27.869 98.510 C 28.278 97.650,29.069 96.876,29.963 96.464 C 30.753 96.099,31.509 95.652,31.641 95.471 C 32.005 94.976,34.757 94.420,36.900 94.410 C 38.234 94.403,38.800 94.237,38.800 93.854 C 38.800 91.826,43.696 88.800,46.979 88.800 L 49.169 88.800 49.583 87.264 C 50.301 84.598,53.030 83.206,57.564 83.194 C 60.265 83.186,60.546 83.022,61.178 81.086 C 61.943 78.739,65.441 77.254,70.300 77.214 L 72.000 77.200 72.000 75.644 C 72.000 72.563,73.825 71.701,80.500 71.629 C 82.793 71.604,83.200 71.494,83.202 70.900 C 83.214 67.191,84.432 66.342,90.186 66.035 L 94.580 65.800 94.883 64.018 C 95.370 61.156,96.017 60.783,101.352 60.287 L 106.000 59.855 106.000 58.787 C 106.000 55.270,106.722 54.820,112.945 54.459 L 117.400 54.200 117.619 52.295 C 117.917 49.705,118.586 49.157,121.763 48.902 C 124.096 48.715,124.440 48.581,124.640 47.783 C 125.157 45.723,129.375 43.203,132.321 43.195 C 134.713 43.188,136.000 42.842,136.000 42.207 C 136.000 40.275,140.403 37.717,144.362 37.349 C 146.923 37.111,147.084 37.034,147.824 35.687 C 148.251 34.910,149.183 33.966,149.896 33.590 C 150.608 33.213,151.448 32.692,151.761 32.432 C 152.075 32.172,153.589 31.854,155.126 31.725 C 157.857 31.496,157.928 31.462,158.167 30.266 C 158.749 27.356,160.364 26.479,165.959 26.035 C 169.082 25.787,169.096 25.778,170.036 23.251 C 170.670 21.546,171.997 20.972,176.634 20.396 C 180.259 19.945,180.783 19.659,180.794 18.122 C 180.805 16.544,182.397 15.235,184.800 14.829 C 188.798 14.154,209.554 14.518,211.303 15.294 M196.707 44.831 C 196.414 47.877,195.356 48.373,189.118 48.390 L 185.636 48.400 185.395 49.900 C 184.908 52.932,184.814 53.117,183.543 53.560 C 182.849 53.802,181.632 54.003,180.840 54.006 C 179.077 54.014,178.688 54.255,177.869 55.854 C 177.031 57.491,173.343 59.598,171.306 59.604 C 168.829 59.612,166.800 60.070,166.800 60.622 C 166.800 61.411,164.876 63.523,163.882 63.826 C 163.397 63.974,162.716 64.343,162.369 64.647 C 162.022 64.950,160.391 65.312,158.744 65.452 C 155.808 65.700,155.735 65.732,154.975 67.152 C 154.549 67.949,153.617 68.891,152.905 69.247 C 152.192 69.603,151.326 70.129,150.979 70.417 C 150.633 70.705,149.156 71.044,147.699 71.170 C 145.064 71.399,145.046 71.408,144.706 72.800 C 144.074 75.385,141.211 76.800,136.613 76.800 C 134.133 76.800,133.663 77.080,133.189 78.842 C 132.564 81.164,128.788 82.770,123.905 82.793 C 122.487 82.800,122.397 82.878,122.169 84.305 C 121.696 87.261,120.574 87.886,115.054 88.268 C 111.209 88.535,110.816 88.739,110.806 90.478 C 110.792 92.947,109.423 93.689,104.383 93.957 L 99.823 94.200 99.479 96.000 C 98.927 98.889,98.367 99.213,93.082 99.693 L 88.459 100.114 88.190 102.074 C 87.804 104.876,87.045 105.259,81.389 105.509 L 76.800 105.712 76.800 107.030 C 76.800 110.460,75.485 111.194,69.329 111.198 L 65.658 111.200 65.381 113.411 C 65.056 116.015,64.233 116.797,61.811 116.805 C 59.323 116.814,58.570 117.154,57.893 118.574 C 56.918 120.618,53.594 122.295,49.842 122.635 C 47.566 122.841,46.800 123.057,46.800 123.495 C 46.800 124.283,44.241 126.800,43.440 126.800 C 43.088 126.800,42.800 126.972,42.800 127.181 C 42.800 127.687,40.180 128.395,38.300 128.398 L 36.800 128.400 36.800 193.750 C 36.800 265.147,36.695 261.211,38.627 262.132 C 41.074 263.299,42.332 266.562,42.653 272.573 C 42.911 277.403,42.956 277.600,43.801 277.600 C 47.081 277.600,47.947 278.946,48.281 284.564 C 48.532 288.789,48.719 289.184,50.478 289.194 C 52.949 289.208,53.689 290.576,53.957 295.629 L 54.200 300.200 56.343 300.415 C 58.846 300.666,59.600 301.414,59.600 303.644 C 59.600 305.851,59.920 306.348,61.642 306.811 C 63.980 307.441,65.600 310.964,65.600 315.420 C 65.600 317.095,65.665 317.200,66.700 317.202 C 70.255 317.209,70.952 317.906,71.294 321.800 C 71.396 322.953,71.490 323.008,73.669 323.202 C 76.467 323.452,76.548 323.533,76.798 326.331 C 76.992 328.510,77.047 328.604,78.200 328.706 C 82.081 329.047,82.790 329.748,82.798 333.252 C 82.800 334.254,82.916 334.312,85.254 334.481 C 86.718 334.587,87.887 334.889,88.154 335.229 C 88.399 335.543,89.247 336.099,90.037 336.464 C 90.945 336.883,91.723 337.650,92.148 338.548 C 92.810 339.941,94.461 340.791,96.518 340.798 C 97.684 340.801,99.051 342.506,99.340 344.318 C 99.594 345.905,99.685 346.000,100.945 346.000 C 101.680 346.000,102.849 346.198,103.543 346.440 C 104.814 346.883,104.908 347.068,105.395 350.100 C 105.634 351.586,105.654 351.600,107.518 351.606 C 108.553 351.609,109.850 351.868,110.400 352.182 C 110.950 352.495,111.981 353.022,112.691 353.352 C 113.764 353.850,115.267 355.625,115.700 356.905 C 115.757 357.073,116.874 357.384,118.183 357.597 C 121.026 358.060,121.912 358.836,122.316 361.218 L 122.619 363.000 125.009 363.218 C 127.996 363.491,131.064 365.225,132.176 367.271 C 132.916 368.632,133.074 368.710,135.576 368.939 C 138.734 369.229,139.600 370.014,139.600 372.585 L 139.600 374.282 143.354 374.546 C 149.099 374.950,150.800 375.955,150.800 378.948 C 150.800 379.876,150.964 379.952,153.500 380.191 C 159.320 380.739,161.135 381.809,162.168 385.300 C 162.334 385.861,162.833 386.001,164.687 386.005 C 169.631 386.015,172.494 387.377,173.217 390.064 C 173.629 391.593,173.640 391.600,175.715 391.614 C 177.648 391.627,181.239 392.321,182.915 393.005 C 183.740 393.342,184.800 395.208,184.800 396.323 C 184.800 396.998,185.223 397.117,188.500 397.359 C 194.786 397.825,195.925 398.366,196.368 401.088 C 196.704 403.159,197.422 403.130,197.953 401.023 C 198.588 398.499,199.519 398.019,204.858 397.462 L 209.351 396.993 209.710 395.597 C 210.376 393.003,213.475 391.600,218.538 391.600 C 220.696 391.600,220.713 391.591,220.968 390.229 C 221.486 387.468,224.271 386.016,229.067 386.005 C 231.745 385.999,232.400 385.720,232.400 384.588 C 232.400 382.079,234.713 380.882,240.879 380.200 L 243.159 379.948 243.421 378.198 C 243.845 375.374,246.040 374.432,252.253 374.408 C 254.461 374.399,254.781 374.040,254.795 371.562 C 254.803 369.973,256.025 369.158,258.776 368.909 C 261.097 368.698,261.252 368.616,262.071 367.158 C 262.579 366.255,263.518 365.353,264.366 364.955 C 265.154 364.585,265.919 364.099,266.064 363.876 C 266.209 363.653,267.559 363.364,269.064 363.235 C 271.751 363.004,271.802 362.979,271.916 361.800 C 272.217 358.689,272.968 358.075,277.300 357.398 C 278.157 357.264,278.800 356.938,278.800 356.636 C 278.800 355.776,280.441 353.947,281.767 353.328 C 282.445 353.011,283.450 352.495,284.000 352.182 C 284.550 351.868,285.832 351.609,286.848 351.606 L 288.697 351.600 288.953 349.670 C 289.318 346.919,289.833 346.401,292.471 346.128 L 294.725 345.896 294.980 344.194 C 295.305 342.027,296.155 341.278,299.051 340.605 C 300.331 340.307,301.429 339.914,301.491 339.732 C 301.932 338.428,303.427 336.655,304.509 336.152 C 305.219 335.822,306.250 335.295,306.800 334.982 C 307.350 334.668,308.633 334.409,309.650 334.406 L 311.501 334.400 311.685 332.186 C 311.912 329.438,312.234 329.113,314.939 328.888 L 317.107 328.709 317.372 326.367 C 317.680 323.647,317.864 323.477,320.800 323.204 L 323.000 323.000 323.218 320.600 C 323.498 317.521,325.225 314.499,327.288 313.480 C 328.336 312.963,328.809 312.429,328.973 311.580 C 329.098 310.931,329.304 309.862,329.431 309.205 C 329.726 307.673,331.347 306.400,333.002 306.400 C 334.281 306.400,334.300 306.372,334.559 304.100 C 334.915 300.990,335.192 300.663,337.677 300.413 L 339.800 300.200 340.237 295.501 C 340.748 290.012,341.103 289.398,343.999 289.000 L 345.935 288.734 346.067 283.980 C 346.221 278.458,346.488 277.965,349.495 277.619 L 351.400 277.400 351.659 270.800 C 351.992 262.304,352.394 261.338,355.900 260.607 L 357.200 260.336 357.200 194.368 L 357.200 128.400 355.358 128.400 C 350.684 128.400,347.467 126.875,346.783 124.336 C 346.407 122.940,346.246 122.800,345.020 122.800 C 339.881 122.800,335.899 121.087,335.370 118.650 C 335.025 117.059,334.622 116.814,332.337 116.806 C 329.397 116.796,325.822 114.706,324.625 112.297 C 324.247 111.536,323.758 111.365,321.390 111.170 C 317.799 110.874,314.649 109.254,313.574 107.148 C 312.885 105.798,312.671 105.677,310.516 105.424 C 306.723 104.979,306.000 104.301,306.000 101.192 L 306.000 100.103 301.524 99.813 C 295.114 99.397,295.245 99.479,294.605 95.500 L 294.364 94.000 291.082 93.990 C 285.115 93.973,283.850 93.343,283.371 90.146 L 283.109 88.400 280.455 88.371 C 273.869 88.298,272.000 87.424,272.000 84.416 L 272.000 82.920 268.457 82.668 C 262.553 82.249,261.539 81.678,260.531 78.200 C 260.191 77.027,260.111 76.994,256.992 76.746 C 252.012 76.350,250.307 75.427,249.583 72.736 L 249.169 71.200 246.885 71.195 C 241.965 71.185,238.972 69.854,238.311 67.383 C 237.861 65.701,237.754 65.599,236.417 65.590 C 234.682 65.579,231.970 64.976,231.641 64.529 C 231.509 64.348,230.753 63.901,229.963 63.536 C 229.069 63.124,228.278 62.350,227.869 61.490 C 227.181 60.039,226.107 59.636,222.800 59.589 C 220.974 59.563,217.183 57.302,216.400 55.772 C 216.070 55.127,215.753 54.523,215.694 54.428 C 215.636 54.333,214.376 54.110,212.894 53.932 C 209.794 53.560,209.325 53.137,208.959 50.377 L 208.710 48.495 203.900 48.324 C 198.390 48.127,197.600 47.683,197.600 44.779 C 197.600 42.481,196.929 42.520,196.707 44.831 M241.196 101.418 C 241.646 101.868,242.150 103.038,242.317 104.018 L 242.619 105.800 244.706 106.011 C 248.412 106.385,248.185 105.181,248.309 125.114 C 248.488 153.673,248.235 155.763,244.531 156.364 L 243.000 156.613 242.745 178.206 C 242.502 198.752,242.449 199.917,241.650 202.200 C 240.829 204.546,238.971 206.800,237.858 206.800 C 237.266 206.800,236.802 221.217,236.798 239.765 C 236.795 252.744,236.679 253.163,232.917 253.786 L 231.234 254.065 231.117 270.371 C 230.985 288.760,231.163 287.797,227.813 288.216 L 225.682 288.482 225.413 290.638 C 225.026 293.733,224.510 293.991,218.611 294.039 L 213.800 294.078 216.339 294.578 C 219.200 295.141,219.585 295.524,219.594 297.820 C 219.602 299.875,220.142 300.400,222.251 300.400 C 224.481 300.400,225.105 301.107,225.433 304.008 C 225.698 306.352,225.731 306.404,227.188 306.797 C 230.534 307.698,231.166 310.202,231.186 322.627 C 231.206 335.278,230.569 338.037,227.436 338.875 L 225.698 339.340 225.482 341.722 C 225.220 344.618,224.740 345.150,222.116 345.461 C 219.960 345.716,219.600 346.227,219.600 349.027 C 219.600 350.337,218.148 351.200,215.946 351.200 L 214.070 351.200 213.789 352.900 C 213.145 356.783,212.928 356.835,197.206 356.837 C 181.440 356.839,180.400 356.553,180.400 352.213 C 180.400 351.246,180.295 351.200,178.089 351.200 C 176.538 351.200,175.453 350.971,174.789 350.503 C 174.245 350.120,173.260 349.535,172.600 349.203 C 171.940 348.872,171.128 348.060,170.797 347.400 C 170.465 346.740,169.880 345.755,169.497 345.211 C 169.029 344.547,168.800 343.462,168.800 341.911 C 168.800 339.705,168.754 339.600,167.787 339.600 C 163.446 339.600,163.157 338.551,163.157 322.800 C 163.157 307.088,163.212 306.855,167.100 306.211 L 168.800 305.930 168.800 304.054 C 168.800 301.852,169.663 300.400,170.973 300.400 C 173.773 300.400,174.284 300.040,174.539 297.884 C 174.841 295.335,175.271 294.910,178.004 294.457 C 179.965 294.132,179.665 294.087,175.200 294.031 C 168.971 293.954,166.748 292.933,164.527 289.133 L 163.225 286.904 162.949 275.452 C 162.744 266.930,162.550 264.000,162.190 264.000 C 158.058 264.000,157.291 258.575,157.231 228.953 L 157.200 213.705 155.541 213.483 C 151.776 212.978,151.685 212.305,151.633 184.539 L 151.600 167.278 150.100 166.521 C 148.977 165.954,148.298 165.165,147.400 163.382 L 146.200 161.000 146.096 134.200 C 145.979 104.156,145.738 106.283,149.285 106.000 C 151.735 105.805,151.803 105.769,151.916 104.600 C 152.129 102.402,152.831 101.217,154.149 100.831 C 157.126 99.959,240.298 100.520,241.196 101.418 M174.168 134.538 C 174.053 134.839,174.013 136.230,174.079 137.631 L 174.200 140.178 176.000 140.521 C 179.739 141.235,179.847 142.168,179.959 174.462 L 180.000 186.324 181.682 186.862 C 185.232 187.997,185.536 190.659,185.577 220.900 L 185.600 237.600 186.540 237.600 C 190.832 237.600,190.962 238.028,191.198 253.000 L 191.400 265.800 197.100 265.911 L 202.800 266.022 202.843 264.511 C 202.866 263.680,203.003 256.340,203.146 248.200 L 203.407 233.400 204.469 231.127 C 205.232 229.494,205.986 228.566,207.146 227.834 L 208.762 226.814 208.882 205.107 C 209.023 179.899,208.931 180.400,213.411 180.400 L 214.303 180.400 214.490 157.900 C 214.593 145.525,214.749 135.130,214.838 134.800 C 215.071 133.937,174.499 133.676,174.168 134.538 M196.724 319.167 C 196.478 321.598,195.780 322.383,193.824 322.428 C 192.004 322.470,190.589 323.134,192.240 323.172 C 195.408 323.244,196.756 324.592,196.828 327.760 C 196.866 329.411,197.530 327.996,197.572 326.176 C 197.616 324.262,198.387 323.566,200.819 323.242 L 203.000 322.952 200.981 322.650 C 198.203 322.234,197.975 322.022,197.426 319.348 L 196.944 317.000 196.724 319.167 " stroke="none" fill="#ffffff" fill-rule="evenodd"></path><path id="path2" d="M184.800 14.829 C 182.397 15.235,180.805 16.544,180.794 18.122 C 180.783 19.659,180.259 19.945,176.634 20.396 C 171.997 20.972,170.670 21.546,170.036 23.251 C 169.096 25.778,169.082 25.787,165.959 26.035 C 160.364 26.479,158.749 27.356,158.167 30.266 C 157.928 31.462,157.857 31.496,155.126 31.725 C 153.589 31.854,152.075 32.172,151.761 32.432 C 151.448 32.692,150.608 33.213,149.896 33.590 C 149.183 33.966,148.251 34.910,147.824 35.687 C 147.084 37.034,146.923 37.111,144.362 37.349 C 140.403 37.717,136.000 40.275,136.000 42.207 C 136.000 42.842,134.713 43.188,132.321 43.195 C 129.375 43.203,125.157 45.723,124.640 47.783 C 124.440 48.581,124.096 48.715,121.763 48.902 C 118.586 49.157,117.917 49.705,117.619 52.295 L 117.400 54.200 112.945 54.459 C 106.722 54.820,106.000 55.270,106.000 58.787 L 106.000 59.855 101.352 60.287 C 96.017 60.783,95.370 61.156,94.883 64.018 L 94.580 65.800 90.186 66.035 C 84.432 66.342,83.214 67.191,83.202 70.900 C 83.200 71.494,82.793 71.604,80.500 71.629 C 73.825 71.701,72.000 72.563,72.000 75.644 L 72.000 77.200 70.300 77.214 C 65.441 77.254,61.943 78.739,61.178 81.086 C 60.546 83.022,60.265 83.186,57.564 83.194 C 53.030 83.206,50.301 84.598,49.583 87.264 L 49.169 88.800 46.979 88.800 C 43.696 88.800,38.800 91.826,38.800 93.854 C 38.800 94.237,38.234 94.403,36.900 94.410 C 34.757 94.420,32.005 94.976,31.641 95.471 C 31.509 95.652,30.753 96.099,29.963 96.464 C 29.069 96.876,28.278 97.650,27.869 98.510 C 27.181 99.961,26.107 100.364,22.800 100.411 C 20.838 100.439,17.159 102.686,16.400 104.320 C 15.779 105.656,15.490 105.789,12.292 106.204 C 8.653 106.676,9.015 97.642,8.886 191.182 C 8.756 286.214,8.524 280.594,12.613 281.688 L 14.400 282.166 14.408 284.583 C 14.430 291.238,15.294 293.257,18.325 293.742 L 19.897 293.993 20.187 298.472 C 20.603 304.887,20.521 304.755,24.500 305.395 L 26.000 305.636 26.010 308.918 C 26.027 314.885,26.657 316.150,29.854 316.629 C 31.599 316.891,31.600 316.891,31.600 318.586 C 31.600 320.474,32.284 322.800,32.839 322.800 C 33.038 322.800,33.200 323.088,33.200 323.440 C 33.200 324.260,35.725 326.800,36.540 326.800 C 36.979 326.800,37.299 327.507,37.637 329.226 C 38.241 332.294,38.943 333.140,41.200 333.519 L 43.000 333.822 43.267 336.001 C 43.596 338.680,44.547 339.600,46.989 339.600 L 48.689 339.600 48.932 341.655 C 49.239 344.244,49.966 345.047,52.236 345.303 C 54.452 345.553,54.447 345.548,54.697 347.764 C 54.953 350.034,55.756 350.761,58.345 351.068 L 60.400 351.311 60.400 353.011 C 60.400 355.451,61.352 356.455,63.898 356.700 L 65.946 356.897 66.211 358.548 C 66.633 361.170,67.298 361.890,69.644 362.268 L 71.713 362.600 72.213 364.574 C 72.811 366.933,73.428 367.445,76.367 368.031 C 78.386 368.433,78.667 368.619,79.301 369.971 C 79.686 370.793,80.496 371.716,81.101 372.022 C 81.705 372.328,82.629 372.899,83.154 373.289 C 83.809 373.777,84.829 374.000,86.408 374.000 L 88.708 374.000 88.982 376.197 C 89.306 378.790,90.160 379.597,92.589 379.606 C 94.628 379.614,94.868 379.805,95.600 382.000 C 96.306 384.119,98.522 385.131,103.254 385.496 L 105.908 385.701 106.098 387.680 C 106.349 390.287,106.951 390.800,110.145 391.127 C 112.673 391.386,112.841 391.469,113.503 392.782 C 114.543 394.844,118.002 396.764,120.713 396.784 C 122.042 396.794,122.882 396.985,122.979 397.300 C 123.064 397.575,123.373 398.609,123.667 399.597 C 124.353 401.910,125.152 402.277,130.270 402.630 C 134.634 402.930,134.779 403.021,134.795 405.456 C 134.806 407.181,136.003 408.002,138.900 408.268 C 140.696 408.433,141.600 408.687,141.600 409.027 C 141.600 410.865,146.656 413.996,149.640 414.005 C 151.919 414.013,153.200 414.368,153.200 414.993 C 153.200 416.908,157.600 419.412,161.600 419.773 C 163.030 419.902,164.246 420.141,164.302 420.304 C 165.434 423.603,168.878 425.219,175.380 425.500 L 180.309 425.712 180.510 427.501 C 180.918 431.120,180.354 431.000,196.928 431.000 C 213.728 431.000,213.378 431.069,213.830 427.659 L 214.087 425.717 218.944 425.488 C 224.817 425.210,228.110 423.937,229.276 421.491 C 229.961 420.055,231.135 419.615,234.306 419.604 C 236.140 419.598,239.881 417.394,240.669 415.854 C 241.526 414.181,241.851 414.013,244.256 414.006 C 247.090 413.998,248.044 413.166,248.302 410.475 L 248.502 408.400 251.951 408.390 C 258.129 408.373,259.215 407.869,259.502 404.881 L 259.691 402.914 263.579 402.659 C 269.481 402.273,270.800 401.587,270.800 398.906 C 270.800 397.291,271.473 396.800,273.686 396.800 C 276.320 396.800,279.738 394.881,280.795 392.809 C 281.538 391.354,281.631 391.307,284.183 391.102 C 287.448 390.840,287.882 390.482,288.221 387.772 L 288.492 385.600 290.288 385.600 C 294.900 385.600,298.513 383.854,298.973 381.405 C 299.239 379.983,299.799 379.600,301.607 379.600 C 302.234 379.600,303.205 379.426,303.763 379.214 C 304.763 378.834,304.915 378.488,305.395 375.500 L 305.636 374.000 307.957 374.000 C 309.584 374.000,310.526 373.791,311.109 373.300 C 311.567 372.915,312.493 372.294,313.167 371.921 C 313.842 371.547,314.697 370.604,315.069 369.825 C 315.605 368.700,316.037 368.360,317.172 368.171 C 320.995 367.533,321.356 367.246,322.172 364.200 C 322.581 362.671,322.683 362.590,324.475 362.384 C 326.933 362.102,327.840 361.227,328.158 358.833 L 328.414 356.900 330.437 356.706 C 332.972 356.462,333.662 355.779,333.903 353.270 L 334.094 351.280 336.244 351.012 C 338.811 350.691,339.600 349.824,339.600 347.325 L 339.600 345.628 341.659 345.354 C 344.250 345.011,345.011 344.250,345.354 341.659 L 345.628 339.600 347.337 339.600 C 349.775 339.600,350.526 338.891,351.010 336.136 C 351.371 334.082,351.540 333.786,352.410 333.681 C 354.942 333.378,356.400 332.048,356.400 330.041 C 356.400 328.800,357.255 326.800,357.785 326.800 C 359.642 326.800,362.202 322.599,362.625 318.858 C 362.885 316.558,362.929 316.488,364.381 316.053 C 366.936 315.287,368.400 312.149,368.400 307.438 C 368.400 305.229,368.415 305.200,369.574 305.200 C 372.934 305.200,373.653 304.055,373.965 298.216 L 374.200 293.823 376.000 293.207 C 378.821 292.241,379.987 288.316,379.997 279.752 L 380.000 276.903 382.000 276.638 C 385.770 276.138,385.400 285.322,385.400 192.218 C 385.400 115.849,385.353 110.097,384.719 108.697 C 383.865 106.812,382.860 106.419,378.004 106.072 L 374.208 105.800 373.928 103.839 C 373.508 100.889,373.102 100.660,367.486 100.200 L 362.600 99.800 362.376 97.850 C 362.099 95.434,361.466 94.935,358.244 94.590 C 355.905 94.339,355.722 94.243,354.983 92.862 C 354.552 92.058,353.617 91.109,352.905 90.753 C 352.192 90.397,351.331 89.875,350.990 89.592 C 350.650 89.309,349.019 88.991,347.366 88.885 C 344.362 88.692,344.361 88.692,343.594 87.188 C 342.521 85.085,339.737 83.559,336.400 83.245 L 333.800 83.000 333.256 81.280 C 332.457 78.756,328.873 77.228,323.700 77.207 C 322.412 77.202,322.000 77.045,322.000 76.560 C 322.000 75.520,320.791 73.284,320.069 72.988 C 318.439 72.319,314.826 71.627,312.900 71.614 C 310.946 71.601,310.800 71.532,310.800 70.626 C 310.800 67.436,309.365 66.484,303.978 66.098 L 299.824 65.800 299.479 64.000 C 298.900 60.969,296.621 60.088,289.152 60.011 C 288.205 60.001,288.084 59.822,287.897 58.159 C 287.569 55.250,285.647 54.431,279.100 54.408 L 276.800 54.400 276.800 53.026 C 276.800 49.533,275.512 48.806,269.318 48.802 L 265.636 48.800 265.395 47.300 C 264.929 44.401,264.811 44.133,263.791 43.669 C 263.225 43.411,262.006 43.197,261.081 43.194 C 259.067 43.187,258.705 42.978,257.869 41.346 C 256.850 39.357,253.504 37.697,249.842 37.365 C 247.566 37.159,246.800 36.943,246.800 36.505 C 246.800 35.717,244.241 33.200,243.440 33.200 C 243.088 33.200,242.800 33.028,242.800 32.819 C 242.800 32.293,240.151 31.605,238.118 31.602 C 236.521 31.600,236.423 31.531,236.180 30.235 C 235.679 27.565,232.683 26.007,228.027 25.994 C 225.363 25.987,224.983 25.780,224.630 24.150 C 224.105 21.732,222.096 20.796,216.100 20.179 C 213.820 19.944,213.600 19.839,213.600 18.987 C 213.600 17.208,212.831 15.973,211.303 15.294 C 209.554 14.518,188.798 14.154,184.800 14.829 M200.653 17.669 C 202.740 18.053,203.588 18.467,205.366 19.969 C 206.735 21.125,208.640 22.210,210.536 22.914 C 212.188 23.527,214.562 24.821,215.811 25.791 C 217.374 27.005,219.131 27.889,221.450 28.627 C 223.302 29.217,225.558 30.262,226.463 30.950 C 229.276 33.087,230.130 33.586,232.417 34.429 C 233.636 34.879,235.679 36.028,236.956 36.984 C 238.234 37.940,240.073 39.005,241.043 39.352 C 242.013 39.698,243.585 40.259,244.536 40.598 C 245.486 40.937,247.402 42.015,248.792 42.995 C 250.183 43.974,252.445 45.149,253.820 45.607 C 255.481 46.160,257.053 47.080,258.506 48.352 C 260.134 49.776,261.447 50.503,263.646 51.196 C 267.328 52.356,268.433 52.902,270.153 54.412 C 270.903 55.071,273.166 56.223,275.182 56.972 C 277.898 57.982,279.338 58.794,280.743 60.108 C 282.168 61.440,283.427 62.144,285.819 62.941 C 288.879 63.962,289.836 64.467,292.721 66.580 C 293.447 67.113,295.476 68.026,297.230 68.610 C 299.447 69.348,301.031 70.194,302.426 71.385 C 303.681 72.456,305.698 73.587,307.807 74.403 C 309.663 75.120,311.860 76.285,312.691 76.992 C 314.637 78.648,315.169 78.916,319.054 80.200 C 321.269 80.932,322.958 81.817,324.403 83.002 C 325.564 83.955,327.524 85.103,328.757 85.553 C 329.991 86.003,331.884 86.963,332.965 87.686 C 334.046 88.409,335.396 89.314,335.965 89.698 C 336.534 90.082,338.368 90.853,340.040 91.411 C 341.712 91.969,344.215 93.225,345.603 94.202 C 346.990 95.178,349.392 96.462,350.942 97.054 C 352.528 97.660,354.469 98.777,355.380 99.609 C 357.379 101.433,357.824 101.666,361.744 102.945 C 363.706 103.585,365.691 104.590,367.024 105.618 C 368.201 106.526,370.459 107.718,372.055 108.273 C 375.775 109.567,376.522 110.080,377.980 112.339 C 378.640 113.363,379.769 114.892,380.490 115.737 L 381.800 117.274 381.800 189.537 C 381.800 268.982,381.991 262.542,379.457 268.600 C 378.905 269.920,378.075 272.530,377.612 274.400 C 377.149 276.270,376.575 278.563,376.335 279.496 C 376.094 280.429,375.111 282.392,374.148 283.857 C 373.186 285.322,372.209 287.259,371.977 288.161 C 370.958 292.132,369.889 294.761,368.413 296.934 C 367.541 298.217,366.327 300.814,365.714 302.706 C 364.819 305.468,364.227 306.543,362.703 308.172 C 361.570 309.383,360.546 310.978,360.160 312.132 C 359.805 313.194,358.651 315.190,357.596 316.567 C 356.540 317.944,355.095 320.223,354.384 321.631 C 353.674 323.039,352.384 324.838,351.520 325.629 C 350.655 326.419,349.464 327.892,348.874 328.902 C 347.618 331.048,344.630 334.591,341.800 337.288 C 340.700 338.337,339.647 339.358,339.460 339.557 C 339.273 339.757,338.013 341.024,336.660 342.374 C 335.307 343.724,333.750 345.314,333.200 345.908 C 330.966 348.322,324.351 354.522,322.848 355.611 C 321.965 356.251,321.042 357.149,320.797 357.605 C 320.553 358.062,319.112 359.231,317.595 360.203 C 316.079 361.175,314.528 362.443,314.149 363.021 C 313.771 363.599,312.527 364.599,311.386 365.243 C 310.244 365.887,308.589 367.207,307.707 368.176 C 306.774 369.200,304.917 370.535,303.269 371.365 C 301.711 372.150,299.517 373.608,298.394 374.605 C 297.272 375.602,295.535 376.802,294.536 377.272 C 293.537 377.742,291.930 378.904,290.965 379.855 C 290.001 380.806,287.992 382.198,286.502 382.949 C 285.011 383.699,282.894 385.059,281.796 385.971 C 280.698 386.882,278.921 387.936,277.847 388.314 C 276.744 388.702,274.883 389.899,273.570 391.067 C 271.899 392.551,270.377 393.452,268.164 394.267 C 266.140 395.011,264.432 395.982,263.188 397.095 C 261.955 398.198,260.159 399.224,258.049 400.029 C 256.264 400.711,253.980 401.950,252.971 402.783 C 251.963 403.616,249.899 404.784,248.384 405.379 C 246.869 405.973,244.444 407.334,242.996 408.403 C 241.328 409.635,239.219 410.728,237.241 411.386 C 235.469 411.977,233.013 413.205,231.560 414.230 C 229.832 415.447,227.894 416.361,225.600 417.042 C 220.656 418.508,219.968 418.810,218.219 420.284 C 217.112 421.216,215.432 421.981,212.619 422.832 C 209.998 423.625,207.807 424.597,206.320 425.624 C 200.985 429.310,193.488 429.328,188.008 425.669 C 186.623 424.744,184.262 423.647,182.664 423.185 C 178.561 422.001,177.602 421.577,176.167 420.318 C 174.663 418.997,173.129 418.314,169.629 417.407 C 166.851 416.688,164.330 415.459,161.800 413.592 C 160.920 412.942,159.086 412.058,157.724 411.626 C 154.871 410.721,152.987 409.756,150.273 407.807 C 149.214 407.046,147.305 406.044,146.031 405.579 C 144.757 405.115,142.762 403.953,141.597 402.998 C 140.310 401.942,138.192 400.775,136.197 400.022 C 134.068 399.218,132.321 398.235,131.226 397.224 C 130.180 396.258,128.293 395.173,126.268 394.374 C 124.048 393.497,122.423 392.532,121.200 391.364 C 120.210 390.419,118.169 389.095,116.665 388.423 C 115.160 387.751,113.202 386.579,112.314 385.819 C 111.425 385.058,109.326 383.721,107.649 382.846 C 105.972 381.972,103.970 380.598,103.200 379.792 C 102.430 378.987,100.900 377.876,99.800 377.323 C 98.700 376.771,97.080 375.644,96.200 374.819 C 95.320 373.994,93.160 372.464,91.400 371.419 C 89.640 370.374,87.546 368.846,86.748 368.024 C 85.949 367.203,84.305 365.971,83.095 365.288 C 81.885 364.605,80.468 363.523,79.947 362.884 C 79.426 362.245,78.148 361.148,77.108 360.447 C 76.067 359.746,74.641 358.457,73.939 357.584 C 73.237 356.710,71.887 355.541,70.939 354.985 C 68.225 353.395,46.794 331.762,45.287 329.093 C 44.595 327.866,43.409 326.390,42.651 325.812 C 41.877 325.221,40.732 323.671,40.036 322.272 C 39.355 320.903,38.059 318.889,37.156 317.796 C 36.252 316.703,34.883 314.546,34.113 313.004 C 33.343 311.462,32.047 309.300,31.234 308.200 C 30.421 307.100,29.324 305.210,28.796 304.000 C 28.269 302.790,27.343 301.080,26.738 300.200 C 24.196 296.503,23.563 295.155,22.623 291.452 C 21.905 288.620,21.246 287.025,20.215 285.620 C 18.613 283.438,17.982 281.844,16.567 276.400 C 16.009 274.252,15.000 271.644,14.247 270.400 C 13.514 269.190,12.664 267.570,12.358 266.800 C 11.454 264.532,11.321 117.708,12.220 115.813 C 13.387 113.354,17.914 109.420,20.778 108.376 C 22.193 107.860,24.113 106.856,25.045 106.145 C 27.228 104.478,28.618 103.772,31.915 102.652 C 33.392 102.151,35.798 100.919,37.261 99.914 C 38.725 98.909,40.615 97.864,41.461 97.590 C 43.859 96.814,45.808 95.733,47.264 94.372 C 48.750 92.982,50.685 92.039,54.054 91.060 C 55.405 90.667,57.086 89.761,58.252 88.798 C 59.321 87.914,60.917 86.927,61.798 86.604 C 62.679 86.280,64.407 85.650,65.639 85.202 C 66.870 84.755,68.670 83.678,69.639 82.810 C 70.757 81.808,72.600 80.778,74.687 79.990 C 76.570 79.280,78.786 78.078,79.875 77.178 C 81.185 76.096,82.934 75.221,85.496 74.368 C 87.927 73.558,90.009 72.537,91.508 71.420 C 92.930 70.360,95.049 69.300,97.089 68.627 C 99.610 67.795,100.812 67.132,102.237 65.786 C 103.259 64.820,104.929 63.728,105.948 63.359 C 109.388 62.114,111.793 60.914,113.326 59.677 C 114.165 59.000,115.695 58.146,116.726 57.780 C 121.550 56.063,122.977 55.381,124.656 53.995 C 125.649 53.174,127.682 52.024,129.173 51.439 C 130.663 50.854,132.945 49.589,134.242 48.629 C 135.621 47.608,137.928 46.426,139.800 45.783 C 141.560 45.178,143.696 44.214,144.546 43.642 C 147.814 41.441,149.097 40.781,152.004 39.806 C 154.004 39.135,155.741 38.196,157.204 36.996 C 158.452 35.972,160.609 34.740,162.200 34.143 C 163.740 33.564,165.603 32.620,166.340 32.045 C 168.793 30.131,169.781 29.594,172.287 28.811 C 175.387 27.843,177.104 26.985,178.436 25.741 C 179.006 25.208,181.346 23.960,183.636 22.967 C 186.237 21.839,188.359 20.617,189.289 19.711 C 191.558 17.499,195.697 16.756,200.653 17.669 M193.922 40.756 C 192.669 41.165,190.890 42.146,189.967 42.935 C 188.833 43.906,187.072 44.776,184.524 45.625 C 182.169 46.410,180.128 47.392,179.078 48.246 C 178.155 48.997,176.230 50.155,174.800 50.819 C 171.303 52.443,170.103 53.130,168.121 54.641 C 167.198 55.345,165.218 56.323,163.721 56.815 C 160.359 57.921,158.474 58.853,156.870 60.203 C 156.189 60.775,153.922 61.930,151.831 62.768 C 149.740 63.606,147.356 64.883,146.533 65.605 C 145.072 66.888,142.842 68.023,139.198 69.340 C 138.207 69.698,136.551 70.689,135.520 71.542 C 134.234 72.604,132.562 73.436,130.208 74.186 C 127.907 74.919,126.007 75.856,124.452 77.024 C 123.176 77.984,120.742 79.304,119.043 79.958 C 117.321 80.621,115.268 81.768,114.402 82.551 C 112.485 84.282,111.395 84.848,107.696 86.031 C 105.905 86.604,104.101 87.531,102.989 88.450 C 101.998 89.269,100.425 90.219,99.493 90.562 C 98.562 90.904,96.793 91.550,95.561 91.998 C 94.330 92.445,92.537 93.516,91.577 94.376 C 90.527 95.317,88.547 96.444,86.615 97.200 C 84.847 97.892,82.500 99.152,81.400 100.000 C 80.195 100.928,77.853 102.094,75.510 102.931 C 73.006 103.826,71.024 104.830,69.949 105.750 C 69.031 106.537,67.452 107.479,66.440 107.845 C 62.787 109.167,60.569 110.304,58.894 111.712 C 57.446 112.930,53.536 114.800,52.438 114.800 C 52.255 114.800,50.641 115.775,48.851 116.966 C 47.061 118.157,44.392 119.521,42.918 119.997 C 39.089 121.234,38.471 121.619,34.849 125.026 L 31.600 128.083 31.600 191.259 L 31.600 254.434 33.222 260.917 C 34.114 264.483,35.045 268.194,35.291 269.163 C 35.538 270.133,36.357 271.843,37.112 272.963 C 38.660 275.261,39.251 276.664,40.244 280.400 C 40.624 281.830,41.490 283.784,42.168 284.742 C 44.533 288.084,44.811 288.622,45.897 291.939 C 46.537 293.895,47.504 295.884,48.231 296.739 C 48.913 297.543,50.217 299.640,51.128 301.400 C 52.040 303.160,53.536 305.500,54.451 306.600 C 55.367 307.700,56.523 309.500,57.021 310.600 C 57.518 311.700,58.767 313.410,59.796 314.400 C 60.824 315.390,62.037 316.920,62.489 317.800 C 62.942 318.680,64.142 320.225,65.156 321.233 C 66.170 322.242,67.632 323.772,68.405 324.633 C 69.178 325.495,70.438 326.751,71.205 327.424 C 71.972 328.097,73.248 329.357,74.039 330.224 C 76.854 333.307,80.732 336.749,82.283 337.540 C 83.149 337.982,84.546 339.184,85.389 340.212 C 86.231 341.240,87.791 342.617,88.855 343.272 C 89.919 343.927,91.178 345.007,91.652 345.672 C 92.125 346.338,93.523 347.517,94.757 348.292 C 95.990 349.067,97.720 350.381,98.600 351.211 C 99.480 352.041,101.460 353.481,103.000 354.411 C 104.540 355.340,106.528 356.768,107.418 357.583 C 108.309 358.399,110.163 359.666,111.539 360.400 C 112.914 361.133,114.388 362.221,114.813 362.818 C 115.238 363.415,117.006 364.642,118.741 365.545 C 120.477 366.448,122.775 367.915,123.849 368.805 C 124.922 369.695,126.871 370.815,128.180 371.294 C 129.554 371.797,131.401 372.912,132.550 373.933 C 133.645 374.906,136.056 376.398,137.908 377.250 C 139.760 378.101,142.064 379.493,143.030 380.342 C 144.098 381.283,145.965 382.318,147.802 382.988 C 149.511 383.611,151.639 384.765,152.708 385.648 C 153.746 386.507,155.317 387.461,156.198 387.769 C 157.079 388.077,158.897 388.717,160.239 389.191 C 161.580 389.664,163.517 390.746,164.545 391.595 C 165.816 392.646,167.595 393.532,170.118 394.373 C 172.661 395.220,174.417 396.098,175.718 397.173 C 177.024 398.252,178.776 399.126,181.361 399.987 C 183.423 400.674,185.985 401.867,187.055 402.639 C 193.290 407.136,201.364 406.970,207.920 402.211 C 208.646 401.684,210.917 400.694,212.965 400.012 C 215.417 399.195,217.242 398.298,218.306 397.388 C 220.060 395.887,222.164 394.874,225.611 393.872 C 226.829 393.518,228.535 392.621,229.411 391.874 C 231.383 390.191,232.641 389.551,236.200 388.421 C 237.813 387.909,239.859 386.872,241.026 385.974 C 242.141 385.117,244.657 383.675,246.618 382.769 C 248.579 381.863,250.764 380.612,251.474 379.988 C 252.185 379.365,254.325 378.124,256.230 377.231 C 258.136 376.338,260.417 374.955,261.299 374.158 C 262.182 373.360,263.916 372.264,265.152 371.722 C 268.755 370.142,269.044 369.976,270.989 368.369 C 272.006 367.528,273.865 366.348,275.119 365.747 C 276.374 365.147,278.338 363.785,279.484 362.720 C 280.630 361.656,282.386 360.435,283.387 360.005 C 284.388 359.576,286.061 358.440,287.104 357.481 C 288.147 356.521,290.170 355.045,291.600 354.201 C 293.030 353.356,295.113 351.815,296.229 350.777 C 297.345 349.738,298.965 348.524,299.829 348.078 C 300.693 347.632,302.120 346.524,303.000 345.614 C 303.880 344.704,305.320 343.538,306.200 343.021 C 307.080 342.505,308.399 341.338,309.130 340.428 C 309.862 339.517,311.212 338.301,312.130 337.724 C 314.556 336.202,330.251 320.260,331.249 318.305 C 331.710 317.399,332.948 315.745,334.000 314.629 C 335.051 313.513,336.574 311.340,337.385 309.800 C 338.196 308.260,339.267 306.550,339.765 306.000 C 341.217 304.398,342.200 302.759,343.161 300.341 C 343.655 299.099,344.830 297.180,345.771 296.077 C 347.031 294.601,347.771 293.168,348.574 290.646 C 349.174 288.762,350.428 286.058,351.361 284.638 C 352.293 283.218,353.380 280.919,353.776 279.528 C 355.416 273.764,355.736 272.901,357.025 270.762 C 360.814 264.470,360.571 269.535,360.701 194.171 L 360.816 128.142 359.656 126.541 C 358.152 124.464,354.134 121.457,351.709 120.593 C 346.883 118.873,345.556 118.239,344.006 116.912 C 343.092 116.130,341.129 114.995,339.642 114.390 C 338.156 113.786,335.762 112.484,334.322 111.498 C 332.882 110.513,330.826 109.393,329.752 109.010 C 328.678 108.627,327.287 108.124,326.661 107.892 C 326.034 107.660,324.339 106.694,322.894 105.745 C 321.448 104.795,319.049 103.554,317.562 102.986 C 316.075 102.417,314.080 101.270,313.129 100.435 C 311.031 98.594,309.696 97.883,306.700 97.012 C 305.440 96.646,303.552 95.732,302.505 94.982 C 300.418 93.488,297.687 92.106,294.611 90.989 C 293.517 90.591,291.782 89.480,290.755 88.519 C 289.310 87.168,288.083 86.503,285.327 85.579 C 282.927 84.773,281.145 83.871,279.861 82.810 C 278.571 81.744,276.856 80.877,274.554 80.127 C 271.993 79.293,270.596 78.549,268.902 77.117 C 267.639 76.049,265.765 74.925,264.626 74.553 C 261.769 73.619,260.007 72.677,258.035 71.029 C 257.066 70.219,255.345 69.316,254.062 68.943 C 250.629 67.945,248.767 67.050,246.933 65.514 C 246.016 64.746,244.036 63.608,242.533 62.985 C 241.030 62.363,238.652 61.050,237.248 60.069 C 235.844 59.088,233.466 57.869,231.963 57.361 C 228.604 56.224,227.239 55.530,224.990 53.813 C 224.029 53.080,222.081 52.093,220.662 51.621 C 218.916 51.040,217.373 50.142,215.894 48.848 C 214.266 47.424,212.953 46.697,210.754 46.004 C 207.125 44.861,205.980 44.303,204.305 42.861 C 201.491 40.439,197.421 39.613,193.922 40.756 M197.600 44.779 C 197.600 47.683,198.390 48.127,203.900 48.324 L 208.710 48.495 208.959 50.377 C 209.325 53.137,209.794 53.560,212.894 53.932 C 214.376 54.110,215.636 54.333,215.694 54.428 C 215.753 54.523,216.070 55.127,216.400 55.772 C 217.183 57.302,220.974 59.563,222.800 59.589 C 226.107 59.636,227.181 60.039,227.869 61.490 C 228.278 62.350,229.069 63.124,229.963 63.536 C 230.753 63.901,231.509 64.348,231.641 64.529 C 231.970 64.976,234.682 65.579,236.417 65.590 C 237.754 65.599,237.861 65.701,238.311 67.383 C 238.972 69.854,241.965 71.185,246.885 71.195 L 249.169 71.200 249.583 72.736 C 250.307 75.427,252.012 76.350,256.992 76.746 C 260.111 76.994,260.191 77.027,260.531 78.200 C 261.539 81.678,262.553 82.249,268.457 82.668 L 272.000 82.920 272.000 84.416 C 272.000 87.424,273.869 88.298,280.455 88.371 L 283.109 88.400 283.371 90.146 C 283.850 93.343,285.115 93.973,291.082 93.990 L 294.364 94.000 294.605 95.500 C 295.245 99.479,295.114 99.397,301.524 99.813 L 306.000 100.103 306.000 101.192 C 306.000 104.301,306.723 104.979,310.516 105.424 C 312.671 105.677,312.885 105.798,313.574 107.148 C 314.649 109.254,317.799 110.874,321.390 111.170 C 323.758 111.365,324.247 111.536,324.625 112.297 C 325.822 114.706,329.397 116.796,332.337 116.806 C 334.622 116.814,335.025 117.059,335.370 118.650 C 335.899 121.087,339.881 122.800,345.020 122.800 C 346.246 122.800,346.407 122.940,346.783 124.336 C 347.467 126.875,350.684 128.400,355.358 128.400 L 357.200 128.400 357.200 194.368 L 357.200 260.336 355.900 260.607 C 352.394 261.338,351.992 262.304,351.659 270.800 L 351.400 277.400 349.495 277.619 C 346.488 277.965,346.221 278.458,346.067 283.980 L 345.935 288.734 343.999 289.000 C 341.103 289.398,340.748 290.012,340.237 295.501 L 339.800 300.200 337.677 300.413 C 335.192 300.663,334.915 300.990,334.559 304.100 C 334.300 306.372,334.281 306.400,333.002 306.400 C 331.347 306.400,329.726 307.673,329.431 309.205 C 329.304 309.862,329.098 310.931,328.973 311.580 C 328.809 312.429,328.336 312.963,327.288 313.480 C 325.225 314.499,323.498 317.521,323.218 320.600 L 323.000 323.000 320.800 323.204 C 317.864 323.477,317.680 323.647,317.372 326.367 L 317.107 328.709 314.939 328.888 C 312.234 329.113,311.912 329.438,311.685 332.186 L 311.501 334.400 309.650 334.406 C 308.633 334.409,307.350 334.668,306.800 334.982 C 306.250 335.295,305.219 335.822,304.509 336.152 C 303.427 336.655,301.932 338.428,301.491 339.732 C 301.429 339.914,300.331 340.307,299.051 340.605 C 296.155 341.278,295.305 342.027,294.980 344.194 L 294.725 345.896 292.471 346.128 C 289.833 346.401,289.318 346.919,288.953 349.670 L 288.697 351.600 286.848 351.606 C 285.832 351.609,284.550 351.868,284.000 352.182 C 283.450 352.495,282.445 353.011,281.767 353.328 C 280.441 353.947,278.800 355.776,278.800 356.636 C 278.800 356.938,278.157 357.264,277.300 357.398 C 272.968 358.075,272.217 358.689,271.916 361.800 C 271.802 362.979,271.751 363.004,269.064 363.235 C 267.559 363.364,266.209 363.653,266.064 363.876 C 265.919 364.099,265.154 364.585,264.366 364.955 C 263.518 365.353,262.579 366.255,262.071 367.158 C 261.252 368.616,261.097 368.698,258.776 368.909 C 256.025 369.158,254.803 369.973,254.795 371.562 C 254.781 374.040,254.461 374.399,252.253 374.408 C 246.040 374.432,243.845 375.374,243.421 378.198 L 243.159 379.948 240.879 380.200 C 234.713 380.882,232.400 382.079,232.400 384.588 C 232.400 385.720,231.745 385.999,229.067 386.005 C 224.271 386.016,221.486 387.468,220.968 390.229 C 220.713 391.591,220.696 391.600,218.538 391.600 C 213.475 391.600,210.376 393.003,209.710 395.597 L 209.351 396.993 204.858 397.462 C 199.519 398.019,198.588 398.499,197.953 401.023 C 197.422 403.130,196.704 403.159,196.368 401.088 C 195.925 398.366,194.786 397.825,188.500 397.359 C 185.223 397.117,184.800 396.998,184.800 396.323 C 184.800 395.208,183.740 393.342,182.915 393.005 C 181.239 392.321,177.648 391.627,175.715 391.614 C 173.640 391.600,173.629 391.593,173.217 390.064 C 172.494 387.377,169.631 386.015,164.687 386.005 C 162.833 386.001,162.334 385.861,162.168 385.300 C 161.135 381.809,159.320 380.739,153.500 380.191 C 150.964 379.952,150.800 379.876,150.800 378.948 C 150.800 375.955,149.099 374.950,143.354 374.546 L 139.600 374.282 139.600 372.585 C 139.600 370.014,138.734 369.229,135.576 368.939 C 133.074 368.710,132.916 368.632,132.176 367.271 C 131.064 365.225,127.996 363.491,125.009 363.218 L 122.619 363.000 122.316 361.218 C 121.912 358.836,121.026 358.060,118.183 357.597 C 116.874 357.384,115.757 357.073,115.700 356.905 C 115.267 355.625,113.764 353.850,112.691 353.352 C 111.981 353.022,110.950 352.495,110.400 352.182 C 109.850 351.868,108.553 351.609,107.518 351.606 C 105.654 351.600,105.634 351.586,105.395 350.100 C 104.908 347.068,104.814 346.883,103.543 346.440 C 102.849 346.198,101.680 346.000,100.945 346.000 C 99.685 346.000,99.594 345.905,99.340 344.318 C 99.051 342.506,97.684 340.801,96.518 340.798 C 94.461 340.791,92.810 339.941,92.148 338.548 C 91.723 337.650,90.945 336.883,90.037 336.464 C 89.247 336.099,88.399 335.543,88.154 335.229 C 87.887 334.889,86.718 334.587,85.254 334.481 C 82.916 334.312,82.800 334.254,82.798 333.252 C 82.790 329.748,82.081 329.047,78.200 328.706 C 77.047 328.604,76.992 328.510,76.798 326.331 C 76.548 323.533,76.467 323.452,73.669 323.202 C 71.490 323.008,71.396 322.953,71.294 321.800 C 70.952 317.906,70.255 317.209,66.700 317.202 C 65.665 317.200,65.600 317.095,65.600 315.420 C 65.600 310.964,63.980 307.441,61.642 306.811 C 59.920 306.348,59.600 305.851,59.600 303.644 C 59.600 301.414,58.846 300.666,56.343 300.415 L 54.200 300.200 53.957 295.629 C 53.689 290.576,52.949 289.208,50.478 289.194 C 48.719 289.184,48.532 288.789,48.281 284.564 C 47.947 278.946,47.081 277.600,43.801 277.600 C 42.956 277.600,42.911 277.403,42.653 272.573 C 42.332 266.562,41.074 263.299,38.627 262.132 C 36.695 261.211,36.800 265.147,36.800 193.750 L 36.800 128.400 38.300 128.398 C 40.180 128.395,42.800 127.687,42.800 127.181 C 42.800 126.972,43.088 126.800,43.440 126.800 C 44.241 126.800,46.800 124.283,46.800 123.495 C 46.800 123.057,47.566 122.841,49.842 122.635 C 53.594 122.295,56.918 120.618,57.893 118.574 C 58.570 117.154,59.323 116.814,61.811 116.805 C 64.233 116.797,65.056 116.015,65.381 113.411 L 65.658 111.200 69.329 111.198 C 75.485 111.194,76.800 110.460,76.800 107.030 L 76.800 105.712 81.389 105.509 C 87.045 105.259,87.804 104.876,88.190 102.074 L 88.459 100.114 93.082 99.693 C 98.367 99.213,98.927 98.889,99.479 96.000 L 99.823 94.200 104.383 93.957 C 109.423 93.689,110.792 92.947,110.806 90.478 C 110.816 88.739,111.209 88.535,115.054 88.268 C 120.574 87.886,121.696 87.261,122.169 84.305 C 122.397 82.878,122.487 82.800,123.905 82.793 C 128.788 82.770,132.564 81.164,133.189 78.842 C 133.663 77.080,134.133 76.800,136.613 76.800 C 141.211 76.800,144.074 75.385,144.706 72.800 C 145.046 71.408,145.064 71.399,147.699 71.170 C 149.156 71.044,150.633 70.705,150.979 70.417 C 151.326 70.129,152.192 69.603,152.905 69.247 C 153.617 68.891,154.549 67.949,154.975 67.152 C 155.735 65.732,155.808 65.700,158.744 65.452 C 160.391 65.312,162.022 64.950,162.369 64.647 C 162.716 64.343,163.397 63.974,163.882 63.826 C 164.876 63.523,166.800 61.411,166.800 60.622 C 166.800 60.070,168.829 59.612,171.306 59.604 C 173.343 59.598,177.031 57.491,177.869 55.854 C 178.688 54.255,179.077 54.014,180.840 54.006 C 181.632 54.003,182.849 53.802,183.543 53.560 C 184.814 53.117,184.908 52.932,185.395 49.900 L 185.636 48.400 189.118 48.390 C 195.356 48.373,196.414 47.877,196.707 44.831 C 196.929 42.520,197.600 42.481,197.600 44.779 M154.149 100.831 C 152.831 101.217,152.129 102.402,151.916 104.600 C 151.803 105.769,151.735 105.805,149.285 106.000 C 145.738 106.283,145.979 104.156,146.096 134.200 L 146.200 161.000 147.400 163.382 C 148.298 165.165,148.977 165.954,150.100 166.521 L 151.600 167.278 151.633 184.539 C 151.685 212.305,151.776 212.978,155.541 213.483 L 157.200 213.705 157.231 228.953 C 157.291 258.575,158.058 264.000,162.190 264.000 C 162.550 264.000,162.744 266.930,162.949 275.452 L 163.225 286.904 164.527 289.133 C 166.748 292.933,168.971 293.954,175.200 294.031 C 179.665 294.087,179.965 294.132,178.004 294.457 C 175.271 294.910,174.841 295.335,174.539 297.884 C 174.284 300.040,173.773 300.400,170.973 300.400 C 169.663 300.400,168.800 301.852,168.800 304.054 L 168.800 305.930 167.100 306.211 C 163.212 306.855,163.157 307.088,163.157 322.800 C 163.157 338.551,163.446 339.600,167.787 339.600 C 168.754 339.600,168.800 339.705,168.800 341.911 C 168.800 343.462,169.029 344.547,169.497 345.211 C 169.880 345.755,170.465 346.740,170.797 347.400 C 171.128 348.060,171.940 348.872,172.600 349.203 C 173.260 349.535,174.245 350.120,174.789 350.503 C 175.453 350.971,176.538 351.200,178.089 351.200 C 180.295 351.200,180.400 351.246,180.400 352.213 C 180.400 356.553,181.440 356.839,197.206 356.837 C 212.928 356.835,213.145 356.783,213.789 352.900 L 214.070 351.200 215.946 351.200 C 218.148 351.200,219.600 350.337,219.600 349.027 C 219.600 346.227,219.960 345.716,222.116 345.461 C 224.740 345.150,225.220 344.618,225.482 341.722 L 225.698 339.340 227.436 338.875 C 230.569 338.037,231.206 335.278,231.186 322.627 C 231.166 310.202,230.534 307.698,227.188 306.797 C 225.731 306.404,225.698 306.352,225.433 304.008 C 225.105 301.107,224.481 300.400,222.251 300.400 C 220.142 300.400,219.602 299.875,219.594 297.820 C 219.585 295.524,219.200 295.141,216.339 294.578 L 213.800 294.078 218.611 294.039 C 224.510 293.991,225.026 293.733,225.413 290.638 L 225.682 288.482 227.813 288.216 C 231.163 287.797,230.985 288.760,231.117 270.371 L 231.234 254.065 232.917 253.786 C 236.679 253.163,236.795 252.744,236.798 239.765 C 236.802 221.217,237.266 206.800,237.858 206.800 C 238.971 206.800,240.829 204.546,241.650 202.200 C 242.449 199.917,242.502 198.752,242.745 178.206 L 243.000 156.613 244.531 156.364 C 248.235 155.763,248.488 153.673,248.309 125.114 C 248.185 105.181,248.412 106.385,244.706 106.011 L 242.619 105.800 242.317 104.018 C 241.677 100.256,246.174 100.609,197.889 100.532 C 173.125 100.493,154.878 100.618,154.149 100.831 M239.422 108.842 C 244.644 112.119,245.888 116.994,244.032 126.901 C 243.610 129.155,243.065 132.260,242.821 133.800 C 242.577 135.340,242.111 138.040,241.784 139.800 C 241.458 141.560,241.008 145.430,240.785 148.400 C 240.042 158.280,239.570 164.947,239.239 170.200 C 239.011 173.820,238.652 176.125,238.056 177.786 C 237.526 179.264,237.200 181.128,237.200 182.682 C 237.200 184.062,236.858 186.498,236.439 188.096 C 235.655 191.089,234.743 199.905,233.986 211.800 C 233.402 220.983,233.026 223.715,230.381 238.024 C 229.951 240.347,229.596 243.677,229.590 245.424 C 229.585 247.171,229.401 249.320,229.181 250.200 C 228.962 251.080,228.599 254.590,228.376 258.000 C 227.440 272.288,227.263 273.881,226.095 278.508 C 223.992 286.844,220.671 289.591,211.432 290.634 C 208.019 291.020,206.086 291.452,204.632 292.156 C 203.514 292.697,201.430 293.372,200.000 293.656 L 197.400 294.174 200.200 294.621 C 201.740 294.867,203.861 295.368,204.914 295.734 C 205.967 296.100,206.995 296.400,207.199 296.400 C 211.899 296.400,221.726 306.145,223.534 312.600 C 223.965 314.140,224.516 315.906,224.759 316.525 C 225.429 318.237,225.709 323.906,225.256 326.600 C 223.137 339.208,217.422 346.344,206.331 350.230 C 204.059 351.026,201.142 352.052,199.849 352.511 C 196.987 353.527,193.642 353.133,190.305 351.388 C 189.171 350.795,186.403 349.726,184.153 349.012 L 180.063 347.714 176.174 343.826 L 172.286 339.937 170.988 335.847 C 170.274 333.597,169.213 330.845,168.630 329.731 C 166.305 325.284,166.355 320.467,168.776 315.628 C 169.389 314.403,170.120 312.680,170.400 311.800 C 172.439 305.401,179.506 298.504,186.200 296.379 C 190.829 294.909,191.425 294.515,190.536 293.513 C 189.205 292.014,186.644 291.219,181.144 290.598 C 178.205 290.267,175.440 289.914,175.000 289.815 C 174.560 289.716,172.786 288.089,171.058 286.200 C 166.637 281.369,166.957 283.125,164.859 252.200 C 164.610 248.527,164.256 246.354,163.654 244.800 C 163.092 243.351,162.800 241.700,162.800 239.963 C 162.800 238.294,162.490 236.458,161.956 234.963 C 161.118 232.614,160.877 230.363,160.009 216.800 C 159.298 205.687,158.844 200.986,158.272 198.800 C 157.954 197.590,157.576 195.483,157.430 194.117 C 157.284 192.752,156.909 190.412,156.598 188.917 C 155.702 184.614,154.852 176.820,154.404 168.800 C 154.176 164.730,153.893 160.860,153.773 160.200 C 153.653 159.540,153.398 157.020,153.205 154.600 C 153.012 152.180,152.485 149.030,152.033 147.600 C 151.553 146.085,151.208 143.900,151.205 142.363 C 151.202 140.780,150.880 138.796,150.400 137.400 C 149.875 135.873,149.600 134.032,149.599 132.037 C 149.599 130.367,149.329 127.470,149.000 125.600 C 148.282 121.525,148.267 118.367,148.948 114.600 C 149.747 110.181,149.648 110.279,155.400 108.227 C 156.743 107.748,163.452 107.652,197.222 107.628 L 237.443 107.600 239.422 108.842 M172.662 127.715 L 171.524 128.626 171.759 136.413 C 172.184 150.497,172.563 153.839,174.993 165.000 C 175.609 167.831,176.188 172.680,176.616 178.600 C 177.861 195.803,178.757 204.543,179.586 207.573 C 180.034 209.208,180.402 211.188,180.405 211.973 C 180.407 212.758,180.684 214.390,181.020 215.600 C 181.598 217.686,181.910 220.977,182.801 234.400 C 183.013 237.590,183.365 240.920,183.583 241.800 C 183.802 242.680,183.985 244.931,183.990 246.803 C 183.996 248.674,184.184 250.834,184.410 251.603 C 184.635 252.371,185.002 254.350,185.226 256.000 C 186.793 267.549,187.593 268.400,196.886 268.400 C 205.884 268.400,206.800 267.840,206.800 262.335 C 206.800 259.777,207.020 258.231,207.600 256.704 C 208.129 255.311,208.400 253.631,208.400 251.733 C 208.400 249.677,208.641 248.320,209.254 246.933 C 209.866 245.547,210.195 243.699,210.417 240.400 C 211.408 225.664,211.634 222.532,212.036 218.000 C 212.280 215.250,212.829 210.930,213.257 208.400 C 213.685 205.870,214.290 202.090,214.601 200.000 C 214.912 197.910,215.350 195.480,215.574 194.600 C 215.798 193.720,215.990 191.470,216.000 189.600 C 216.010 187.730,216.202 185.480,216.425 184.600 C 216.649 183.720,217.001 180.390,217.207 177.200 C 218.003 164.896,218.379 160.917,218.965 158.600 C 219.298 157.280,219.578 155.628,219.586 154.929 C 219.594 154.231,219.959 151.836,220.398 149.609 C 222.596 138.460,222.881 129.599,221.103 127.700 L 220.261 126.800 197.030 126.802 L 173.800 126.804 172.662 127.715 M214.838 134.800 C 214.749 135.130,214.593 145.525,214.490 157.900 L 214.303 180.400 213.411 180.400 C 208.931 180.400,209.023 179.899,208.882 205.107 L 208.762 226.814 207.146 227.834 C 205.986 228.566,205.232 229.494,204.469 231.127 L 203.407 233.400 203.146 248.200 C 203.003 256.340,202.866 263.680,202.843 264.511 L 202.800 266.022 197.100 265.911 L 191.400 265.800 191.198 253.000 C 190.962 238.028,190.832 237.600,186.540 237.600 L 185.600 237.600 185.577 220.900 C 185.536 190.659,185.232 187.997,181.682 186.862 L 180.000 186.324 179.959 174.462 C 179.847 142.168,179.739 141.235,176.000 140.521 L 174.200 140.178 174.079 137.631 C 174.013 136.230,174.053 134.839,174.168 134.538 C 174.499 133.676,215.071 133.937,214.838 134.800 M194.356 315.065 C 189.220 316.780,187.207 323.131,190.048 328.656 C 191.736 331.939,200.812 331.887,203.450 328.578 C 208.475 322.276,201.922 312.539,194.356 315.065 M198.435 322.022 C 198.725 322.201,199.870 322.483,200.981 322.650 L 203.000 322.952 200.819 323.242 C 198.387 323.566,197.616 324.262,197.572 326.176 C 197.530 327.996,196.866 329.411,196.828 327.760 C 196.756 324.592,195.408 323.244,192.240 323.172 C 190.589 323.134,192.004 322.470,193.824 322.428 C 195.780 322.383,196.478 321.598,196.724 319.167 L 196.944 317.000 197.426 319.348 C 197.691 320.639,198.145 321.842,198.435 322.022 " stroke="none" fill="#fcfcfc" fill-rule="evenodd"></path></g></svg>