<svg width="200" height="64" viewBox="0 0 200 64" fill="none" xmlns="http://www.w3.org/2000/svg">
<path d="M77.8931 57.1907C73.7576 57.1907 70.6382 56.8517 68.5347 56.174C67.0018 55.7104 66.3957 54.7295 66.7165 53.2312L67.0908 51.0376C67.3761 49.6465 68.196 48.9509 69.5509 48.9509C69.9787 48.9509 71.1015 49.2185 72.9197 49.7535C74.7379 50.2529 76.6989 50.5026 78.8023 50.5026H79.9252C82.5278 50.5026 84.4174 50.1994 85.5937 49.5928C86.8058 48.9864 87.5367 48.0413 87.7864 46.7572L87.8399 46.5431C88.1249 45.152 87.822 44.1355 86.9307 43.4933C86.0752 42.8156 83.9538 41.9951 80.5671 41.0321C76.0749 39.7124 73.0625 38.3035 71.5295 36.8052C70.0321 35.3072 69.5685 33.0777 70.1391 30.1171L70.1925 29.8497C70.6561 27.424 71.3691 25.5157 72.3315 24.1246C73.3298 22.7334 74.8628 21.6634 76.9307 20.9143C78.9983 20.1295 81.7613 19.7372 85.2194 19.7372H86.9841C91.3691 19.7372 94.5778 20.0939 96.6098 20.8073C98.1428 21.271 98.7668 22.2519 98.4815 23.75L98.0538 25.8902C97.7685 27.317 96.9307 28.0304 95.5405 28.0304C95.1483 28.0304 94.061 27.7629 92.2783 27.2279C90.4957 26.6928 88.535 26.4253 86.396 26.4253H85.2729C82.7061 26.4253 80.87 26.7106 79.7648 27.2814C78.6596 27.8521 78 28.7438 77.7862 29.9566L77.7327 30.2243C77.5188 31.437 77.8396 32.3107 78.6954 32.846C79.5509 33.3454 81.5651 34.0407 84.7382 34.9327C89.444 36.2523 92.5278 37.6792 93.9896 39.213C95.487 40.711 95.9862 43.0474 95.487 46.222L95.4336 46.5431C94.8275 50.2529 93.3836 52.9636 91.1018 54.676C88.8203 56.3523 85.059 57.1907 79.8182 57.1907H77.8931Z" fill="white"/>
<path d="M113.325 23.8571C113.04 25.3195 112.166 26.0508 110.704 26.0508H107.816C107.139 26.0508 106.604 25.8189 106.212 25.3552C105.856 24.8915 105.749 24.3029 105.891 23.5895L106.373 20.9143C106.658 19.4518 107.532 18.7206 108.993 18.7206H111.881C112.594 18.7206 113.129 18.9703 113.485 19.4697C113.842 19.9334 113.949 20.5219 113.806 21.2353L113.325 23.8571ZM107.87 54.7829C107.585 56.2098 106.729 56.9231 105.303 56.9231H102.416C101.702 56.9231 101.168 56.6913 100.811 56.2275C100.455 55.7639 100.348 55.1751 100.49 54.4618L104.662 30.8127C104.947 29.3503 105.802 28.619 107.228 28.619H110.17C110.847 28.619 111.364 28.8687 111.721 29.3679C112.077 29.8318 112.184 30.4202 112.041 31.1338L107.87 54.7829Z" fill="white"/>
<path d="M124.418 57.1907C121.245 57.1907 118.536 56.8517 116.29 56.174C114.793 55.7104 114.186 54.7295 114.471 53.2312L114.846 51.1445C115.131 49.7535 115.951 49.0578 117.306 49.0578C117.769 49.0578 118.928 49.361 120.782 49.9673C122.636 50.5381 124.436 50.8234 126.183 50.8234H126.718C128.571 50.8234 129.873 50.6275 130.621 50.235C131.37 49.8425 131.834 49.2185 132.012 48.3624C132.154 47.5064 131.887 46.9176 131.21 46.5965C130.532 46.2399 128.928 45.7763 126.397 45.2055C122.404 44.4564 119.837 43.4578 118.696 42.2092C117.555 40.9607 117.234 38.9098 117.734 36.0561C118.233 33.3454 119.48 31.3835 121.477 30.1705C123.509 28.9578 126.522 28.3515 130.514 28.3515H131.317C134.383 28.3515 137.092 28.7081 139.445 29.4217C140.943 29.8853 141.549 30.8662 141.263 32.3644L140.889 34.4512C140.604 35.8422 139.766 36.5376 138.375 36.5376C137.912 36.5376 136.825 36.2523 135.114 35.6815C133.402 35.0751 131.673 34.772 129.926 34.772H129.499C127.965 34.772 126.878 34.9327 126.236 35.2535C125.595 35.5746 125.203 36.1275 125.06 36.9121C124.953 37.5899 125.131 38.1072 125.595 38.4639C126.094 38.785 127.199 39.1416 128.91 39.5341C133.652 40.4257 136.7 41.478 138.055 42.6907C139.41 43.8679 139.837 45.8477 139.338 48.6298C138.803 51.5905 137.431 53.7662 135.221 55.1575C133.046 56.513 129.712 57.1907 125.22 57.1907H124.418Z" fill="white"/>
<path d="M158.413 57.1908H157.13C152.459 57.1908 149.215 56.5665 147.397 55.3179C145.579 54.0338 144.919 51.965 145.418 49.1113L150.284 21.6634C150.499 20.2009 151.354 19.4697 152.851 19.4697H155.792C156.47 19.4697 156.987 19.7015 157.343 20.1652C157.7 20.6289 157.807 21.2175 157.664 21.9309L156.648 27.9234C156.577 28.2088 156.613 28.4228 156.755 28.5655C156.898 28.7081 157.147 28.7617 157.504 28.726C158.93 28.4763 160.303 28.3515 161.622 28.3515H162.424C167.023 28.3515 170.214 29.3679 171.996 31.4012C173.814 33.3988 174.278 36.948 173.386 42.0488L173.173 43.4934C172.21 48.8439 170.677 52.4645 168.573 54.3549C166.47 56.2454 163.083 57.1908 158.413 57.1908ZM154.456 50.235C155.347 50.4847 156.541 50.6095 158.039 50.6095H158.68C161.033 50.6095 162.673 50.1101 163.6 49.1113C164.563 48.1127 165.294 46.1685 165.793 43.2792L166.007 42.1558C166.506 39.3379 166.434 37.4295 165.793 36.4306C165.151 35.4321 163.654 34.9327 161.301 34.9327H160.606C159.536 34.9327 158.217 35.111 156.648 35.4676C155.65 35.7173 155.044 36.413 154.83 37.5543L153.172 47.2387C152.994 48.1303 152.994 48.8081 153.172 49.272C153.351 49.7356 153.778 50.0567 154.456 50.235Z" fill="white"/>
<path d="M182.163 56.9231H179.115C178.509 56.9231 178.046 56.7269 177.725 56.3344C177.368 55.9064 177.243 55.3893 177.35 54.7829L180.773 35.2535C181.201 32.935 181.771 31.4012 182.484 30.6523C183.233 29.9032 184.623 29.3144 186.655 28.8865C188.26 28.5298 189.989 28.3515 191.843 28.3515H192.163C194.695 28.3515 196.566 28.512 197.778 28.833C199.383 29.2254 200.06 30.117 199.81 31.5084L199.49 33.5413C199.24 34.9327 198.402 35.628 196.976 35.628C196.691 35.628 196.014 35.5211 194.944 35.3072C193.91 35.0575 192.894 34.9327 191.896 34.9327H191.789C191.147 34.9327 190.381 35.0217 189.49 35.2C188.919 35.3428 188.509 35.5746 188.26 35.8957C188.046 36.1809 187.885 36.6624 187.778 37.3402L184.73 54.7829C184.623 55.4248 184.32 55.9422 183.821 56.3344C183.358 56.7269 182.805 56.9231 182.163 56.9231Z" fill="white"/>
<path fill-rule="evenodd" clip-rule="evenodd" d="M10.2098 22.1859L37.8238 13.8719L46.0423 22.2176C47.7645 23.9665 46.9596 26.9438 44.5963 27.5643L12.2565 36.0558L7.89563 31.911C4.67988 28.8543 5.96239 23.4647 10.2098 22.1859ZM47.8764 20.3735L40.6391 13.0243L50.6714 10.0038C54.9385 8.71911 58.9934 12.5431 57.9619 16.8785L52.8405 38.4009L23.3589 46.609L14.4835 38.1728L45.2478 30.0948C49.544 28.9668 51.0079 23.5535 47.8764 20.3735ZM52.1521 41.2936L25.5569 48.6983L38.5298 61.0289C41.7602 64.0994 47.1024 62.5142 48.1342 58.1786L52.1521 41.2936Z" fill="url(#paint0_linear)"/>
<defs>
<linearGradient id="paint0_linear" x1="17.3474" y1="50.1769" x2="50.0171" y2="14.3208" gradientUnits="userSpaceOnUse">
<stop stop-color="#00A091"/>
<stop offset="1" stop-color="#7DB61C"/>
</linearGradient>
</defs>
</svg>
